<svg width="1870" height="48" viewBox="0 0 1870 48" fill="none" xmlns="http://www.w3.org/2000/svg">
<path d="M18.2599 21.674C18.2087 21.1584 17.9893 20.7578 17.6015 20.4723C17.2137 20.1868 16.6874 20.044 16.0226 20.044C15.5709 20.044 15.1895 20.108 14.8785 20.2358C14.5674 20.3594 14.3287 20.532 14.1626 20.7536C14.0006 20.9751 13.9197 21.2266 13.9197 21.5078C13.9111 21.7422 13.9601 21.9467 14.0667 22.1214C14.1775 22.2962 14.3287 22.4474 14.5205 22.5753C14.7123 22.6989 14.9339 22.8075 15.1853 22.9013C15.4367 22.9908 15.7052 23.0675 15.9907 23.1314L17.1668 23.4126C17.7378 23.5405 18.262 23.7109 18.7393 23.924C19.2165 24.1371 19.6299 24.3991 19.9793 24.7102C20.3287 25.0213 20.5993 25.3878 20.7911 25.8097C20.9871 26.2315 21.0873 26.7152 21.0915 27.2607C21.0873 28.0618 20.8827 28.7564 20.4779 29.3445C20.0773 29.9283 19.4978 30.3821 18.7393 30.706C17.985 31.0256 17.0752 31.1854 16.0099 31.1854C14.953 31.1854 14.0326 31.0234 13.2485 30.6996C12.4687 30.3757 11.8593 29.8963 11.4204 29.2614C10.9857 28.6222 10.7577 27.8317 10.7364 26.8899H13.4147C13.4445 27.3288 13.5702 27.6953 13.7918 27.9893C14.0177 28.2791 14.3181 28.4986 14.6931 28.6477C15.0724 28.7926 15.5006 28.8651 15.9779 28.8651C16.4466 28.8651 16.8536 28.7969 17.1988 28.6605C17.5482 28.5241 17.8188 28.3345 18.0106 28.0916C18.2023 27.8487 18.2982 27.5696 18.2982 27.2543C18.2982 26.9602 18.2108 26.7131 18.0361 26.5128C17.8657 26.3125 17.6143 26.142 17.2819 26.0014C16.9537 25.8608 16.551 25.733 16.0738 25.6179L14.6483 25.2599C13.5447 24.9915 12.6732 24.5717 12.034 24.0007C11.3948 23.4297 11.0773 22.6605 11.0816 21.6932C11.0773 20.9006 11.2883 20.2081 11.7144 19.6158C12.1448 19.0234 12.735 18.5611 13.485 18.2287C14.235 17.8963 15.0873 17.7301 16.0418 17.7301C17.0134 17.7301 17.8614 17.8963 18.5858 18.2287C19.3145 18.5611 19.8813 19.0234 20.2861 19.6158C20.691 20.2081 20.8998 20.8942 20.9126 21.674H18.2599ZM22.9532 31V17.9091H25.721V23.3104H31.3396V17.9091H34.1009V31H31.3396V25.5923H25.721V31H22.9532ZM48.4127 24.4545C48.4127 25.8821 48.1421 27.0966 47.6009 28.098C47.064 29.0994 46.3311 29.8643 45.4021 30.3928C44.4774 30.9169 43.4376 31.179 42.2828 31.179C41.1194 31.179 40.0754 30.9148 39.1507 30.3864C38.2259 29.858 37.4951 29.093 36.9582 28.0916C36.4213 27.0902 36.1528 25.8778 36.1528 24.4545C36.1528 23.027 36.4213 21.8125 36.9582 20.8111C37.4951 19.8097 38.2259 19.0469 39.1507 18.5227C40.0754 17.9943 41.1194 17.7301 42.2828 17.7301C43.4376 17.7301 44.4774 17.9943 45.4021 18.5227C46.3311 19.0469 47.064 19.8097 47.6009 20.8111C48.1421 21.8125 48.4127 23.027 48.4127 24.4545ZM45.6066 24.4545C45.6066 23.5298 45.4681 22.75 45.1911 22.1151C44.9184 21.4801 44.5328 20.9986 44.0342 20.6705C43.5356 20.3423 42.9518 20.1783 42.2828 20.1783C41.6137 20.1783 41.0299 20.3423 40.5313 20.6705C40.0328 20.9986 39.645 21.4801 39.368 22.1151C39.0953 22.75 38.9589 23.5298 38.9589 24.4545C38.9589 25.3793 39.0953 26.1591 39.368 26.794C39.645 27.429 40.0328 27.9105 40.5313 28.2386C41.0299 28.5668 41.6137 28.7308 42.2828 28.7308C42.9518 28.7308 43.5356 28.5668 44.0342 28.2386C44.5328 27.9105 44.9184 27.429 45.1911 26.794C45.4681 26.1591 45.6066 25.3793 45.6066 24.4545ZM50.463 31V17.9091H55.6278C56.6207 17.9091 57.4665 18.0987 58.1654 18.478C58.8643 18.853 59.3969 19.375 59.7634 20.044C60.1341 20.7088 60.3195 21.4759 60.3195 22.3452C60.3195 23.2145 60.132 23.9815 59.757 24.6463C59.382 25.3111 58.8387 25.8288 58.127 26.1996C57.4197 26.5703 56.5631 26.7557 55.5574 26.7557H52.2655V24.5376H55.11C55.6427 24.5376 56.0816 24.446 56.4268 24.2628C56.7762 24.0753 57.0361 23.8175 57.2066 23.4893C57.3813 23.157 57.4687 22.7756 57.4687 22.3452C57.4687 21.9105 57.3813 21.5312 57.2066 21.2074C57.0361 20.8793 56.7762 20.6257 56.4268 20.4467C56.0773 20.2635 55.6341 20.1719 55.0972 20.1719H53.2307V31H50.463Z" fill="black"/>
<path d="M114.26 21.674C114.209 21.1584 113.989 20.7578 113.601 20.4723C113.214 20.1868 112.687 20.044 112.023 20.044C111.571 20.044 111.19 20.108 110.878 20.2358C110.567 20.3594 110.329 20.532 110.163 20.7536C110.001 20.9751 109.92 21.2266 109.92 21.5078C109.911 21.7422 109.96 21.9467 110.067 22.1214C110.177 22.2962 110.329 22.4474 110.521 22.5753C110.712 22.6989 110.934 22.8075 111.185 22.9013C111.437 22.9908 111.705 23.0675 111.991 23.1314L113.167 23.4126C113.738 23.5405 114.262 23.7109 114.739 23.924C115.217 24.1371 115.63 24.3991 115.979 24.7102C116.329 25.0213 116.599 25.3878 116.791 25.8097C116.987 26.2315 117.087 26.7152 117.092 27.2607C117.087 28.0618 116.883 28.7564 116.478 29.3445C116.077 29.9283 115.498 30.3821 114.739 30.706C113.985 31.0256 113.075 31.1854 112.01 31.1854C110.953 31.1854 110.033 31.0234 109.248 30.6996C108.469 30.3757 107.859 29.8963 107.42 29.2614C106.986 28.6222 106.758 27.8317 106.736 26.8899H109.415C109.445 27.3288 109.57 27.6953 109.792 27.9893C110.018 28.2791 110.318 28.4986 110.693 28.6477C111.072 28.7926 111.501 28.8651 111.978 28.8651C112.447 28.8651 112.854 28.7969 113.199 28.6605C113.548 28.5241 113.819 28.3345 114.011 28.0916C114.202 27.8487 114.298 27.5696 114.298 27.2543C114.298 26.9602 114.211 26.7131 114.036 26.5128C113.866 26.3125 113.614 26.142 113.282 26.0014C112.954 25.8608 112.551 25.733 112.074 25.6179L110.648 25.2599C109.545 24.9915 108.673 24.5717 108.034 24.0007C107.395 23.4297 107.077 22.6605 107.082 21.6932C107.077 20.9006 107.288 20.2081 107.714 19.6158C108.145 19.0234 108.735 18.5611 109.485 18.2287C110.235 17.8963 111.087 17.7301 112.042 17.7301C113.013 17.7301 113.861 17.8963 114.586 18.2287C115.315 18.5611 115.881 19.0234 116.286 19.6158C116.691 20.2081 116.9 20.8942 116.913 21.674H114.26ZM118.953 31V17.9091H121.721V23.3104H127.34V17.9091H130.101V31H127.34V25.5923H121.721V31H118.953ZM144.413 24.4545C144.413 25.8821 144.142 27.0966 143.601 28.098C143.064 29.0994 142.331 29.8643 141.402 30.3928C140.477 30.9169 139.438 31.179 138.283 31.179C137.119 31.179 136.075 30.9148 135.151 30.3864C134.226 29.858 133.495 29.093 132.958 28.0916C132.421 27.0902 132.153 25.8778 132.153 24.4545C132.153 23.027 132.421 21.8125 132.958 20.8111C133.495 19.8097 134.226 19.0469 135.151 18.5227C136.075 17.9943 137.119 17.7301 138.283 17.7301C139.438 17.7301 140.477 17.9943 141.402 18.5227C142.331 19.0469 143.064 19.8097 143.601 20.8111C144.142 21.8125 144.413 23.027 144.413 24.4545ZM141.607 24.4545C141.607 23.5298 141.468 22.75 141.191 22.1151C140.918 21.4801 140.533 20.9986 140.034 20.6705C139.536 20.3423 138.952 20.1783 138.283 20.1783C137.614 20.1783 137.03 20.3423 136.531 20.6705C136.033 20.9986 135.645 21.4801 135.368 22.1151C135.095 22.75 134.959 23.5298 134.959 24.4545C134.959 25.3793 135.095 26.1591 135.368 26.794C135.645 27.429 136.033 27.9105 136.531 28.2386C137.03 28.5668 137.614 28.7308 138.283 28.7308C138.952 28.7308 139.536 28.5668 140.034 28.2386C140.533 27.9105 140.918 27.429 141.191 26.794C141.468 26.1591 141.607 25.3793 141.607 24.4545ZM146.463 31V17.9091H151.628C152.621 17.9091 153.467 18.0987 154.165 18.478C154.864 18.853 155.397 19.375 155.763 20.044C156.134 20.7088 156.32 21.4759 156.32 22.3452C156.32 23.2145 156.132 23.9815 155.757 24.6463C155.382 25.3111 154.839 25.8288 154.127 26.1996C153.42 26.5703 152.563 26.7557 151.557 26.7557H148.266V24.5376H151.11C151.643 24.5376 152.082 24.446 152.427 24.2628C152.776 24.0753 153.036 23.8175 153.207 23.4893C153.381 23.157 153.469 22.7756 153.469 22.3452C153.469 21.9105 153.381 21.5312 153.207 21.2074C153.036 20.8793 152.776 20.6257 152.427 20.4467C152.077 20.2635 151.634 20.1719 151.097 20.1719H149.231V31H146.463Z" fill="black"/>
<path d="M210.26 21.674C210.209 21.1584 209.989 20.7578 209.601 20.4723C209.214 20.1868 208.687 20.044 208.023 20.044C207.571 20.044 207.19 20.108 206.878 20.2358C206.567 20.3594 206.329 20.532 206.163 20.7536C206.001 20.9751 205.92 21.2266 205.92 21.5078C205.911 21.7422 205.96 21.9467 206.067 22.1214C206.177 22.2962 206.329 22.4474 206.521 22.5753C206.712 22.6989 206.934 22.8075 207.185 22.9013C207.437 22.9908 207.705 23.0675 207.991 23.1314L209.167 23.4126C209.738 23.5405 210.262 23.7109 210.739 23.924C211.217 24.1371 211.63 24.3991 211.979 24.7102C212.329 25.0213 212.599 25.3878 212.791 25.8097C212.987 26.2315 213.087 26.7152 213.092 27.2607C213.087 28.0618 212.883 28.7564 212.478 29.3445C212.077 29.9283 211.498 30.3821 210.739 30.706C209.985 31.0256 209.075 31.1854 208.01 31.1854C206.953 31.1854 206.033 31.0234 205.248 30.6996C204.469 30.3757 203.859 29.8963 203.42 29.2614C202.986 28.6222 202.758 27.8317 202.736 26.8899H205.415C205.445 27.3288 205.57 27.6953 205.792 27.9893C206.018 28.2791 206.318 28.4986 206.693 28.6477C207.072 28.7926 207.501 28.8651 207.978 28.8651C208.447 28.8651 208.854 28.7969 209.199 28.6605C209.548 28.5241 209.819 28.3345 210.011 28.0916C210.202 27.8487 210.298 27.5696 210.298 27.2543C210.298 26.9602 210.211 26.7131 210.036 26.5128C209.866 26.3125 209.614 26.142 209.282 26.0014C208.954 25.8608 208.551 25.733 208.074 25.6179L206.648 25.2599C205.545 24.9915 204.673 24.5717 204.034 24.0007C203.395 23.4297 203.077 22.6605 203.082 21.6932C203.077 20.9006 203.288 20.2081 203.714 19.6158C204.145 19.0234 204.735 18.5611 205.485 18.2287C206.235 17.8963 207.087 17.7301 208.042 17.7301C209.013 17.7301 209.861 17.8963 210.586 18.2287C211.315 18.5611 211.881 19.0234 212.286 19.6158C212.691 20.2081 212.9 20.8942 212.913 21.674H210.26ZM214.953 31V17.9091H217.721V23.3104H223.34V17.9091H226.101V31H223.34V25.5923H217.721V31H214.953ZM240.413 24.4545C240.413 25.8821 240.142 27.0966 239.601 28.098C239.064 29.0994 238.331 29.8643 237.402 30.3928C236.477 30.9169 235.438 31.179 234.283 31.179C233.119 31.179 232.075 30.9148 231.151 30.3864C230.226 29.858 229.495 29.093 228.958 28.0916C228.421 27.0902 228.153 25.8778 228.153 24.4545C228.153 23.027 228.421 21.8125 228.958 20.8111C229.495 19.8097 230.226 19.0469 231.151 18.5227C232.075 17.9943 233.119 17.7301 234.283 17.7301C235.438 17.7301 236.477 17.9943 237.402 18.5227C238.331 19.0469 239.064 19.8097 239.601 20.8111C240.142 21.8125 240.413 23.027 240.413 24.4545ZM237.607 24.4545C237.607 23.5298 237.468 22.75 237.191 22.1151C236.918 21.4801 236.533 20.9986 236.034 20.6705C235.536 20.3423 234.952 20.1783 234.283 20.1783C233.614 20.1783 233.03 20.3423 232.531 20.6705C232.033 20.9986 231.645 21.4801 231.368 22.1151C231.095 22.75 230.959 23.5298 230.959 24.4545C230.959 25.3793 231.095 26.1591 231.368 26.794C231.645 27.429 232.033 27.9105 232.531 28.2386C233.03 28.5668 233.614 28.7308 234.283 28.7308C234.952 28.7308 235.536 28.5668 236.034 28.2386C236.533 27.9105 236.918 27.429 237.191 26.794C237.468 26.1591 237.607 25.3793 237.607 24.4545ZM242.463 31V17.9091H247.628C248.621 17.9091 249.467 18.0987 250.165 18.478C250.864 18.853 251.397 19.375 251.763 20.044C252.134 20.7088 252.32 21.4759 252.32 22.3452C252.32 23.2145 252.132 23.9815 251.757 24.6463C251.382 25.3111 250.839 25.8288 250.127 26.1996C249.42 26.5703 248.563 26.7557 247.557 26.7557H244.266V24.5376H247.11C247.643 24.5376 248.082 24.446 248.427 24.2628C248.776 24.0753 249.036 23.8175 249.207 23.4893C249.381 23.157 249.469 22.7756 249.469 22.3452C249.469 21.9105 249.381 21.5312 249.207 21.2074C249.036 20.8793 248.776 20.6257 248.427 20.4467C248.077 20.2635 247.634 20.1719 247.097 20.1719H245.231V31H242.463Z" fill="black"/>
<path d="M306.26 21.674C306.209 21.1584 305.989 20.7578 305.601 20.4723C305.214 20.1868 304.687 20.044 304.023 20.044C303.571 20.044 303.19 20.108 302.878 20.2358C302.567 20.3594 302.329 20.532 302.163 20.7536C302.001 20.9751 301.92 21.2266 301.92 21.5078C301.911 21.7422 301.96 21.9467 302.067 22.1214C302.177 22.2962 302.329 22.4474 302.521 22.5753C302.712 22.6989 302.934 22.8075 303.185 22.9013C303.437 22.9908 303.705 23.0675 303.991 23.1314L305.167 23.4126C305.738 23.5405 306.262 23.7109 306.739 23.924C307.217 24.1371 307.63 24.3991 307.979 24.7102C308.329 25.0213 308.599 25.3878 308.791 25.8097C308.987 26.2315 309.087 26.7152 309.092 27.2607C309.087 28.0618 308.883 28.7564 308.478 29.3445C308.077 29.9283 307.498 30.3821 306.739 30.706C305.985 31.0256 305.075 31.1854 304.01 31.1854C302.953 31.1854 302.033 31.0234 301.248 30.6996C300.469 30.3757 299.859 29.8963 299.42 29.2614C298.986 28.6222 298.758 27.8317 298.736 26.8899H301.415C301.445 27.3288 301.57 27.6953 301.792 27.9893C302.018 28.2791 302.318 28.4986 302.693 28.6477C303.072 28.7926 303.501 28.8651 303.978 28.8651C304.447 28.8651 304.854 28.7969 305.199 28.6605C305.548 28.5241 305.819 28.3345 306.011 28.0916C306.202 27.8487 306.298 27.5696 306.298 27.2543C306.298 26.9602 306.211 26.7131 306.036 26.5128C305.866 26.3125 305.614 26.142 305.282 26.0014C304.954 25.8608 304.551 25.733 304.074 25.6179L302.648 25.2599C301.545 24.9915 300.673 24.5717 300.034 24.0007C299.395 23.4297 299.077 22.6605 299.082 21.6932C299.077 20.9006 299.288 20.2081 299.714 19.6158C300.145 19.0234 300.735 18.5611 301.485 18.2287C302.235 17.8963 303.087 17.7301 304.042 17.7301C305.013 17.7301 305.861 17.8963 306.586 18.2287C307.315 18.5611 307.881 19.0234 308.286 19.6158C308.691 20.2081 308.9 20.8942 308.913 21.674H306.26ZM310.953 31V17.9091H313.721V23.3104H319.34V17.9091H322.101V31H319.34V25.5923H313.721V31H310.953ZM336.413 24.4545C336.413 25.8821 336.142 27.0966 335.601 28.098C335.064 29.0994 334.331 29.8643 333.402 30.3928C332.477 30.9169 331.438 31.179 330.283 31.179C329.119 31.179 328.075 30.9148 327.151 30.3864C326.226 29.858 325.495 29.093 324.958 28.0916C324.421 27.0902 324.153 25.8778 324.153 24.4545C324.153 23.027 324.421 21.8125 324.958 20.8111C325.495 19.8097 326.226 19.0469 327.151 18.5227C328.075 17.9943 329.119 17.7301 330.283 17.7301C331.438 17.7301 332.477 17.9943 333.402 18.5227C334.331 19.0469 335.064 19.8097 335.601 20.8111C336.142 21.8125 336.413 23.027 336.413 24.4545ZM333.607 24.4545C333.607 23.5298 333.468 22.75 333.191 22.1151C332.918 21.4801 332.533 20.9986 332.034 20.6705C331.536 20.3423 330.952 20.1783 330.283 20.1783C329.614 20.1783 329.03 20.3423 328.531 20.6705C328.033 20.9986 327.645 21.4801 327.368 22.1151C327.095 22.75 326.959 23.5298 326.959 24.4545C326.959 25.3793 327.095 26.1591 327.368 26.794C327.645 27.429 328.033 27.9105 328.531 28.2386C329.03 28.5668 329.614 28.7308 330.283 28.7308C330.952 28.7308 331.536 28.5668 332.034 28.2386C332.533 27.9105 332.918 27.429 333.191 26.794C333.468 26.1591 333.607 25.3793 333.607 24.4545ZM338.463 31V17.9091H343.628C344.621 17.9091 345.467 18.0987 346.165 18.478C346.864 18.853 347.397 19.375 347.763 20.044C348.134 20.7088 348.32 21.4759 348.32 22.3452C348.32 23.2145 348.132 23.9815 347.757 24.6463C347.382 25.3111 346.839 25.8288 346.127 26.1996C345.42 26.5703 344.563 26.7557 343.557 26.7557H340.266V24.5376H343.11C343.643 24.5376 344.082 24.446 344.427 24.2628C344.776 24.0753 345.036 23.8175 345.207 23.4893C345.381 23.157 345.469 22.7756 345.469 22.3452C345.469 21.9105 345.381 21.5312 345.207 21.2074C345.036 20.8793 344.776 20.6257 344.427 20.4467C344.077 20.2635 343.634 20.1719 343.097 20.1719H341.231V31H338.463Z" fill="black"/>
<path d="M402.26 21.674C402.209 21.1584 401.989 20.7578 401.601 20.4723C401.214 20.1868 400.687 20.044 400.023 20.044C399.571 20.044 399.19 20.108 398.878 20.2358C398.567 20.3594 398.329 20.532 398.163 20.7536C398.001 20.9751 397.92 21.2266 397.92 21.5078C397.911 21.7422 397.96 21.9467 398.067 22.1214C398.177 22.2962 398.329 22.4474 398.521 22.5753C398.712 22.6989 398.934 22.8075 399.185 22.9013C399.437 22.9908 399.705 23.0675 399.991 23.1314L401.167 23.4126C401.738 23.5405 402.262 23.7109 402.739 23.924C403.217 24.1371 403.63 24.3991 403.979 24.7102C404.329 25.0213 404.599 25.3878 404.791 25.8097C404.987 26.2315 405.087 26.7152 405.092 27.2607C405.087 28.0618 404.883 28.7564 404.478 29.3445C404.077 29.9283 403.498 30.3821 402.739 30.706C401.985 31.0256 401.075 31.1854 400.01 31.1854C398.953 31.1854 398.033 31.0234 397.248 30.6996C396.469 30.3757 395.859 29.8963 395.42 29.2614C394.986 28.6222 394.758 27.8317 394.736 26.8899H397.415C397.445 27.3288 397.57 27.6953 397.792 27.9893C398.018 28.2791 398.318 28.4986 398.693 28.6477C399.072 28.7926 399.501 28.8651 399.978 28.8651C400.447 28.8651 400.854 28.7969 401.199 28.6605C401.548 28.5241 401.819 28.3345 402.011 28.0916C402.202 27.8487 402.298 27.5696 402.298 27.2543C402.298 26.9602 402.211 26.7131 402.036 26.5128C401.866 26.3125 401.614 26.142 401.282 26.0014C400.954 25.8608 400.551 25.733 400.074 25.6179L398.648 25.2599C397.545 24.9915 396.673 24.5717 396.034 24.0007C395.395 23.4297 395.077 22.6605 395.082 21.6932C395.077 20.9006 395.288 20.2081 395.714 19.6158C396.145 19.0234 396.735 18.5611 397.485 18.2287C398.235 17.8963 399.087 17.7301 400.042 17.7301C401.013 17.7301 401.861 17.8963 402.586 18.2287C403.315 18.5611 403.881 19.0234 404.286 19.6158C404.691 20.2081 404.9 20.8942 404.913 21.674H402.26ZM406.953 31V17.9091H409.721V23.3104H415.34V17.9091H418.101V31H415.34V25.5923H409.721V31H406.953ZM432.413 24.4545C432.413 25.8821 432.142 27.0966 431.601 28.098C431.064 29.0994 430.331 29.8643 429.402 30.3928C428.477 30.9169 427.438 31.179 426.283 31.179C425.119 31.179 424.075 30.9148 423.151 30.3864C422.226 29.858 421.495 29.093 420.958 28.0916C420.421 27.0902 420.153 25.8778 420.153 24.4545C420.153 23.027 420.421 21.8125 420.958 20.8111C421.495 19.8097 422.226 19.0469 423.151 18.5227C424.075 17.9943 425.119 17.7301 426.283 17.7301C427.438 17.7301 428.477 17.9943 429.402 18.5227C430.331 19.0469 431.064 19.8097 431.601 20.8111C432.142 21.8125 432.413 23.027 432.413 24.4545ZM429.607 24.4545C429.607 23.5298 429.468 22.75 429.191 22.1151C428.918 21.4801 428.533 20.9986 428.034 20.6705C427.536 20.3423 426.952 20.1783 426.283 20.1783C425.614 20.1783 425.03 20.3423 424.531 20.6705C424.033 20.9986 423.645 21.4801 423.368 22.1151C423.095 22.75 422.959 23.5298 422.959 24.4545C422.959 25.3793 423.095 26.1591 423.368 26.794C423.645 27.429 424.033 27.9105 424.531 28.2386C425.03 28.5668 425.614 28.7308 426.283 28.7308C426.952 28.7308 427.536 28.5668 428.034 28.2386C428.533 27.9105 428.918 27.429 429.191 26.794C429.468 26.1591 429.607 25.3793 429.607 24.4545ZM434.463 31V17.9091H439.628C440.621 17.9091 441.467 18.0987 442.165 18.478C442.864 18.853 443.397 19.375 443.763 20.044C444.134 20.7088 444.32 21.4759 444.32 22.3452C444.32 23.2145 444.132 23.9815 443.757 24.6463C443.382 25.3111 442.839 25.8288 442.127 26.1996C441.42 26.5703 440.563 26.7557 439.557 26.7557H436.266V24.5376H439.11C439.643 24.5376 440.082 24.446 440.427 24.2628C440.776 24.0753 441.036 23.8175 441.207 23.4893C441.381 23.157 441.469 22.7756 441.469 22.3452C441.469 21.9105 441.381 21.5312 441.207 21.2074C441.036 20.8793 440.776 20.6257 440.427 20.4467C440.077 20.2635 439.634 20.1719 439.097 20.1719H437.231V31H434.463Z" fill="black"/>
<path d="M498.26 21.674C498.209 21.1584 497.989 20.7578 497.601 20.4723C497.214 20.1868 496.687 20.044 496.023 20.044C495.571 20.044 495.19 20.108 494.878 20.2358C494.567 20.3594 494.329 20.532 494.163 20.7536C494.001 20.9751 493.92 21.2266 493.92 21.5078C493.911 21.7422 493.96 21.9467 494.067 22.1214C494.177 22.2962 494.329 22.4474 494.521 22.5753C494.712 22.6989 494.934 22.8075 495.185 22.9013C495.437 22.9908 495.705 23.0675 495.991 23.1314L497.167 23.4126C497.738 23.5405 498.262 23.7109 498.739 23.924C499.217 24.1371 499.63 24.3991 499.979 24.7102C500.329 25.0213 500.599 25.3878 500.791 25.8097C500.987 26.2315 501.087 26.7152 501.092 27.2607C501.087 28.0618 500.883 28.7564 500.478 29.3445C500.077 29.9283 499.498 30.3821 498.739 30.706C497.985 31.0256 497.075 31.1854 496.01 31.1854C494.953 31.1854 494.033 31.0234 493.248 30.6996C492.469 30.3757 491.859 29.8963 491.42 29.2614C490.986 28.6222 490.758 27.8317 490.736 26.8899H493.415C493.445 27.3288 493.57 27.6953 493.792 27.9893C494.018 28.2791 494.318 28.4986 494.693 28.6477C495.072 28.7926 495.501 28.8651 495.978 28.8651C496.447 28.8651 496.854 28.7969 497.199 28.6605C497.548 28.5241 497.819 28.3345 498.011 28.0916C498.202 27.8487 498.298 27.5696 498.298 27.2543C498.298 26.9602 498.211 26.7131 498.036 26.5128C497.866 26.3125 497.614 26.142 497.282 26.0014C496.954 25.8608 496.551 25.733 496.074 25.6179L494.648 25.2599C493.545 24.9915 492.673 24.5717 492.034 24.0007C491.395 23.4297 491.077 22.6605 491.082 21.6932C491.077 20.9006 491.288 20.2081 491.714 19.6158C492.145 19.0234 492.735 18.5611 493.485 18.2287C494.235 17.8963 495.087 17.7301 496.042 17.7301C497.013 17.7301 497.861 17.8963 498.586 18.2287C499.315 18.5611 499.881 19.0234 500.286 19.6158C500.691 20.2081 500.9 20.8942 500.913 21.674H498.26ZM502.953 31V17.9091H505.721V23.3104H511.34V17.9091H514.101V31H511.34V25.5923H505.721V31H502.953ZM528.413 24.4545C528.413 25.8821 528.142 27.0966 527.601 28.098C527.064 29.0994 526.331 29.8643 525.402 30.3928C524.477 30.9169 523.438 31.179 522.283 31.179C521.119 31.179 520.075 30.9148 519.151 30.3864C518.226 29.858 517.495 29.093 516.958 28.0916C516.421 27.0902 516.153 25.8778 516.153 24.4545C516.153 23.027 516.421 21.8125 516.958 20.8111C517.495 19.8097 518.226 19.0469 519.151 18.5227C520.075 17.9943 521.119 17.7301 522.283 17.7301C523.438 17.7301 524.477 17.9943 525.402 18.5227C526.331 19.0469 527.064 19.8097 527.601 20.8111C528.142 21.8125 528.413 23.027 528.413 24.4545ZM525.607 24.4545C525.607 23.5298 525.468 22.75 525.191 22.1151C524.918 21.4801 524.533 20.9986 524.034 20.6705C523.536 20.3423 522.952 20.1783 522.283 20.1783C521.614 20.1783 521.03 20.3423 520.531 20.6705C520.033 20.9986 519.645 21.4801 519.368 22.1151C519.095 22.75 518.959 23.5298 518.959 24.4545C518.959 25.3793 519.095 26.1591 519.368 26.794C519.645 27.429 520.033 27.9105 520.531 28.2386C521.03 28.5668 521.614 28.7308 522.283 28.7308C522.952 28.7308 523.536 28.5668 524.034 28.2386C524.533 27.9105 524.918 27.429 525.191 26.794C525.468 26.1591 525.607 25.3793 525.607 24.4545ZM530.463 31V17.9091H535.628C536.621 17.9091 537.467 18.0987 538.165 18.478C538.864 18.853 539.397 19.375 539.763 20.044C540.134 20.7088 540.32 21.4759 540.32 22.3452C540.32 23.2145 540.132 23.9815 539.757 24.6463C539.382 25.3111 538.839 25.8288 538.127 26.1996C537.42 26.5703 536.563 26.7557 535.557 26.7557H532.266V24.5376H535.11C535.643 24.5376 536.082 24.446 536.427 24.2628C536.776 24.0753 537.036 23.8175 537.207 23.4893C537.381 23.157 537.469 22.7756 537.469 22.3452C537.469 21.9105 537.381 21.5312 537.207 21.2074C537.036 20.8793 536.776 20.6257 536.427 20.4467C536.077 20.2635 535.634 20.1719 535.097 20.1719H533.231V31H530.463Z" fill="black"/>
<path d="M594.26 21.674C594.209 21.1584 593.989 20.7578 593.601 20.4723C593.214 20.1868 592.687 20.044 592.023 20.044C591.571 20.044 591.19 20.108 590.878 20.2358C590.567 20.3594 590.329 20.532 590.163 20.7536C590.001 20.9751 589.92 21.2266 589.92 21.5078C589.911 21.7422 589.96 21.9467 590.067 22.1214C590.177 22.2962 590.329 22.4474 590.521 22.5753C590.712 22.6989 590.934 22.8075 591.185 22.9013C591.437 22.9908 591.705 23.0675 591.991 23.1314L593.167 23.4126C593.738 23.5405 594.262 23.7109 594.739 23.924C595.217 24.1371 595.63 24.3991 595.979 24.7102C596.329 25.0213 596.599 25.3878 596.791 25.8097C596.987 26.2315 597.087 26.7152 597.092 27.2607C597.087 28.0618 596.883 28.7564 596.478 29.3445C596.077 29.9283 595.498 30.3821 594.739 30.706C593.985 31.0256 593.075 31.1854 592.01 31.1854C590.953 31.1854 590.033 31.0234 589.248 30.6996C588.469 30.3757 587.859 29.8963 587.42 29.2614C586.986 28.6222 586.758 27.8317 586.736 26.8899H589.415C589.445 27.3288 589.57 27.6953 589.792 27.9893C590.018 28.2791 590.318 28.4986 590.693 28.6477C591.072 28.7926 591.501 28.8651 591.978 28.8651C592.447 28.8651 592.854 28.7969 593.199 28.6605C593.548 28.5241 593.819 28.3345 594.011 28.0916C594.202 27.8487 594.298 27.5696 594.298 27.2543C594.298 26.9602 594.211 26.7131 594.036 26.5128C593.866 26.3125 593.614 26.142 593.282 26.0014C592.954 25.8608 592.551 25.733 592.074 25.6179L590.648 25.2599C589.545 24.9915 588.673 24.5717 588.034 24.0007C587.395 23.4297 587.077 22.6605 587.082 21.6932C587.077 20.9006 587.288 20.2081 587.714 19.6158C588.145 19.0234 588.735 18.5611 589.485 18.2287C590.235 17.8963 591.087 17.7301 592.042 17.7301C593.013 17.7301 593.861 17.8963 594.586 18.2287C595.315 18.5611 595.881 19.0234 596.286 19.6158C596.691 20.2081 596.9 20.8942 596.913 21.674H594.26ZM598.953 31V17.9091H601.721V23.3104H607.34V17.9091H610.101V31H607.34V25.5923H601.721V31H598.953ZM624.413 24.4545C624.413 25.8821 624.142 27.0966 623.601 28.098C623.064 29.0994 622.331 29.8643 621.402 30.3928C620.477 30.9169 619.438 31.179 618.283 31.179C617.119 31.179 616.075 30.9148 615.151 30.3864C614.226 29.858 613.495 29.093 612.958 28.0916C612.421 27.0902 612.153 25.8778 612.153 24.4545C612.153 23.027 612.421 21.8125 612.958 20.8111C613.495 19.8097 614.226 19.0469 615.151 18.5227C616.075 17.9943 617.119 17.7301 618.283 17.7301C619.438 17.7301 620.477 17.9943 621.402 18.5227C622.331 19.0469 623.064 19.8097 623.601 20.8111C624.142 21.8125 624.413 23.027 624.413 24.4545ZM621.607 24.4545C621.607 23.5298 621.468 22.75 621.191 22.1151C620.918 21.4801 620.533 20.9986 620.034 20.6705C619.536 20.3423 618.952 20.1783 618.283 20.1783C617.614 20.1783 617.03 20.3423 616.531 20.6705C616.033 20.9986 615.645 21.4801 615.368 22.1151C615.095 22.75 614.959 23.5298 614.959 24.4545C614.959 25.3793 615.095 26.1591 615.368 26.794C615.645 27.429 616.033 27.9105 616.531 28.2386C617.03 28.5668 617.614 28.7308 618.283 28.7308C618.952 28.7308 619.536 28.5668 620.034 28.2386C620.533 27.9105 620.918 27.429 621.191 26.794C621.468 26.1591 621.607 25.3793 621.607 24.4545ZM626.463 31V17.9091H631.628C632.621 17.9091 633.467 18.0987 634.165 18.478C634.864 18.853 635.397 19.375 635.763 20.044C636.134 20.7088 636.32 21.4759 636.32 22.3452C636.32 23.2145 636.132 23.9815 635.757 24.6463C635.382 25.3111 634.839 25.8288 634.127 26.1996C633.42 26.5703 632.563 26.7557 631.557 26.7557H628.266V24.5376H631.11C631.643 24.5376 632.082 24.446 632.427 24.2628C632.776 24.0753 633.036 23.8175 633.207 23.4893C633.381 23.157 633.469 22.7756 633.469 22.3452C633.469 21.9105 633.381 21.5312 633.207 21.2074C633.036 20.8793 632.776 20.6257 632.427 20.4467C632.077 20.2635 631.634 20.1719 631.097 20.1719H629.231V31H626.463Z" fill="black"/>
<path d="M690.26 21.674C690.209 21.1584 689.989 20.7578 689.601 20.4723C689.214 20.1868 688.687 20.044 688.023 20.044C687.571 20.044 687.19 20.108 686.878 20.2358C686.567 20.3594 686.329 20.532 686.163 20.7536C686.001 20.9751 685.92 21.2266 685.92 21.5078C685.911 21.7422 685.96 21.9467 686.067 22.1214C686.177 22.2962 686.329 22.4474 686.521 22.5753C686.712 22.6989 686.934 22.8075 687.185 22.9013C687.437 22.9908 687.705 23.0675 687.991 23.1314L689.167 23.4126C689.738 23.5405 690.262 23.7109 690.739 23.924C691.217 24.1371 691.63 24.3991 691.979 24.7102C692.329 25.0213 692.599 25.3878 692.791 25.8097C692.987 26.2315 693.087 26.7152 693.092 27.2607C693.087 28.0618 692.883 28.7564 692.478 29.3445C692.077 29.9283 691.498 30.3821 690.739 30.706C689.985 31.0256 689.075 31.1854 688.01 31.1854C686.953 31.1854 686.033 31.0234 685.248 30.6996C684.469 30.3757 683.859 29.8963 683.42 29.2614C682.986 28.6222 682.758 27.8317 682.736 26.8899H685.415C685.445 27.3288 685.57 27.6953 685.792 27.9893C686.018 28.2791 686.318 28.4986 686.693 28.6477C687.072 28.7926 687.501 28.8651 687.978 28.8651C688.447 28.8651 688.854 28.7969 689.199 28.6605C689.548 28.5241 689.819 28.3345 690.011 28.0916C690.202 27.8487 690.298 27.5696 690.298 27.2543C690.298 26.9602 690.211 26.7131 690.036 26.5128C689.866 26.3125 689.614 26.142 689.282 26.0014C688.954 25.8608 688.551 25.733 688.074 25.6179L686.648 25.2599C685.545 24.9915 684.673 24.5717 684.034 24.0007C683.395 23.4297 683.077 22.6605 683.082 21.6932C683.077 20.9006 683.288 20.2081 683.714 19.6158C684.145 19.0234 684.735 18.5611 685.485 18.2287C686.235 17.8963 687.087 17.7301 688.042 17.7301C689.013 17.7301 689.861 17.8963 690.586 18.2287C691.315 18.5611 691.881 19.0234 692.286 19.6158C692.691 20.2081 692.9 20.8942 692.913 21.674H690.26ZM694.953 31V17.9091H697.721V23.3104H703.34V17.9091H706.101V31H703.34V25.5923H697.721V31H694.953ZM720.413 24.4545C720.413 25.8821 720.142 27.0966 719.601 28.098C719.064 29.0994 718.331 29.8643 717.402 30.3928C716.477 30.9169 715.438 31.179 714.283 31.179C713.119 31.179 712.075 30.9148 711.151 30.3864C710.226 29.858 709.495 29.093 708.958 28.0916C708.421 27.0902 708.153 25.8778 708.153 24.4545C708.153 23.027 708.421 21.8125 708.958 20.8111C709.495 19.8097 710.226 19.0469 711.151 18.5227C712.075 17.9943 713.119 17.7301 714.283 17.7301C715.438 17.7301 716.477 17.9943 717.402 18.5227C718.331 19.0469 719.064 19.8097 719.601 20.8111C720.142 21.8125 720.413 23.027 720.413 24.4545ZM717.607 24.4545C717.607 23.5298 717.468 22.75 717.191 22.1151C716.918 21.4801 716.533 20.9986 716.034 20.6705C715.536 20.3423 714.952 20.1783 714.283 20.1783C713.614 20.1783 713.03 20.3423 712.531 20.6705C712.033 20.9986 711.645 21.4801 711.368 22.1151C711.095 22.75 710.959 23.5298 710.959 24.4545C710.959 25.3793 711.095 26.1591 711.368 26.794C711.645 27.429 712.033 27.9105 712.531 28.2386C713.03 28.5668 713.614 28.7308 714.283 28.7308C714.952 28.7308 715.536 28.5668 716.034 28.2386C716.533 27.9105 716.918 27.429 717.191 26.794C717.468 26.1591 717.607 25.3793 717.607 24.4545ZM722.463 31V17.9091H727.628C728.621 17.9091 729.467 18.0987 730.165 18.478C730.864 18.853 731.397 19.375 731.763 20.044C732.134 20.7088 732.32 21.4759 732.32 22.3452C732.32 23.2145 732.132 23.9815 731.757 24.6463C731.382 25.3111 730.839 25.8288 730.127 26.1996C729.42 26.5703 728.563 26.7557 727.557 26.7557H724.266V24.5376H727.11C727.643 24.5376 728.082 24.446 728.427 24.2628C728.776 24.0753 729.036 23.8175 729.207 23.4893C729.381 23.157 729.469 22.7756 729.469 22.3452C729.469 21.9105 729.381 21.5312 729.207 21.2074C729.036 20.8793 728.776 20.6257 728.427 20.4467C728.077 20.2635 727.634 20.1719 727.097 20.1719H725.231V31H722.463Z" fill="black"/>
<path d="M786.26 21.674C786.209 21.1584 785.989 20.7578 785.601 20.4723C785.214 20.1868 784.687 20.044 784.023 20.044C783.571 20.044 783.19 20.108 782.878 20.2358C782.567 20.3594 782.329 20.532 782.163 20.7536C782.001 20.9751 781.92 21.2266 781.92 21.5078C781.911 21.7422 781.96 21.9467 782.067 22.1214C782.177 22.2962 782.329 22.4474 782.521 22.5753C782.712 22.6989 782.934 22.8075 783.185 22.9013C783.437 22.9908 783.705 23.0675 783.991 23.1314L785.167 23.4126C785.738 23.5405 786.262 23.7109 786.739 23.924C787.217 24.1371 787.63 24.3991 787.979 24.7102C788.329 25.0213 788.599 25.3878 788.791 25.8097C788.987 26.2315 789.087 26.7152 789.092 27.2607C789.087 28.0618 788.883 28.7564 788.478 29.3445C788.077 29.9283 787.498 30.3821 786.739 30.706C785.985 31.0256 785.075 31.1854 784.01 31.1854C782.953 31.1854 782.033 31.0234 781.248 30.6996C780.469 30.3757 779.859 29.8963 779.42 29.2614C778.986 28.6222 778.758 27.8317 778.736 26.8899H781.415C781.445 27.3288 781.57 27.6953 781.792 27.9893C782.018 28.2791 782.318 28.4986 782.693 28.6477C783.072 28.7926 783.501 28.8651 783.978 28.8651C784.447 28.8651 784.854 28.7969 785.199 28.6605C785.548 28.5241 785.819 28.3345 786.011 28.0916C786.202 27.8487 786.298 27.5696 786.298 27.2543C786.298 26.9602 786.211 26.7131 786.036 26.5128C785.866 26.3125 785.614 26.142 785.282 26.0014C784.954 25.8608 784.551 25.733 784.074 25.6179L782.648 25.2599C781.545 24.9915 780.673 24.5717 780.034 24.0007C779.395 23.4297 779.077 22.6605 779.082 21.6932C779.077 20.9006 779.288 20.2081 779.714 19.6158C780.145 19.0234 780.735 18.5611 781.485 18.2287C782.235 17.8963 783.087 17.7301 784.042 17.7301C785.013 17.7301 785.861 17.8963 786.586 18.2287C787.315 18.5611 787.881 19.0234 788.286 19.6158C788.691 20.2081 788.9 20.8942 788.913 21.674H786.26ZM790.953 31V17.9091H793.721V23.3104H799.34V17.9091H802.101V31H799.34V25.5923H793.721V31H790.953ZM816.413 24.4545C816.413 25.8821 816.142 27.0966 815.601 28.098C815.064 29.0994 814.331 29.8643 813.402 30.3928C812.477 30.9169 811.438 31.179 810.283 31.179C809.119 31.179 808.075 30.9148 807.151 30.3864C806.226 29.858 805.495 29.093 804.958 28.0916C804.421 27.0902 804.153 25.8778 804.153 24.4545C804.153 23.027 804.421 21.8125 804.958 20.8111C805.495 19.8097 806.226 19.0469 807.151 18.5227C808.075 17.9943 809.119 17.7301 810.283 17.7301C811.438 17.7301 812.477 17.9943 813.402 18.5227C814.331 19.0469 815.064 19.8097 815.601 20.8111C816.142 21.8125 816.413 23.027 816.413 24.4545ZM813.607 24.4545C813.607 23.5298 813.468 22.75 813.191 22.1151C812.918 21.4801 812.533 20.9986 812.034 20.6705C811.536 20.3423 810.952 20.1783 810.283 20.1783C809.614 20.1783 809.03 20.3423 808.531 20.6705C808.033 20.9986 807.645 21.4801 807.368 22.1151C807.095 22.75 806.959 23.5298 806.959 24.4545C806.959 25.3793 807.095 26.1591 807.368 26.794C807.645 27.429 808.033 27.9105 808.531 28.2386C809.03 28.5668 809.614 28.7308 810.283 28.7308C810.952 28.7308 811.536 28.5668 812.034 28.2386C812.533 27.9105 812.918 27.429 813.191 26.794C813.468 26.1591 813.607 25.3793 813.607 24.4545ZM818.463 31V17.9091H823.628C824.621 17.9091 825.467 18.0987 826.165 18.478C826.864 18.853 827.397 19.375 827.763 20.044C828.134 20.7088 828.32 21.4759 828.32 22.3452C828.32 23.2145 828.132 23.9815 827.757 24.6463C827.382 25.3111 826.839 25.8288 826.127 26.1996C825.42 26.5703 824.563 26.7557 823.557 26.7557H820.266V24.5376H823.11C823.643 24.5376 824.082 24.446 824.427 24.2628C824.776 24.0753 825.036 23.8175 825.207 23.4893C825.381 23.157 825.469 22.7756 825.469 22.3452C825.469 21.9105 825.381 21.5312 825.207 21.2074C825.036 20.8793 824.776 20.6257 824.427 20.4467C824.077 20.2635 823.634 20.1719 823.097 20.1719H821.231V31H818.463Z" fill="black"/>
<path d="M882.26 21.674C882.209 21.1584 881.989 20.7578 881.601 20.4723C881.214 20.1868 880.687 20.044 880.023 20.044C879.571 20.044 879.19 20.108 878.878 20.2358C878.567 20.3594 878.329 20.532 878.163 20.7536C878.001 20.9751 877.92 21.2266 877.92 21.5078C877.911 21.7422 877.96 21.9467 878.067 22.1214C878.177 22.2962 878.329 22.4474 878.521 22.5753C878.712 22.6989 878.934 22.8075 879.185 22.9013C879.437 22.9908 879.705 23.0675 879.991 23.1314L881.167 23.4126C881.738 23.5405 882.262 23.7109 882.739 23.924C883.217 24.1371 883.63 24.3991 883.979 24.7102C884.329 25.0213 884.599 25.3878 884.791 25.8097C884.987 26.2315 885.087 26.7152 885.092 27.2607C885.087 28.0618 884.883 28.7564 884.478 29.3445C884.077 29.9283 883.498 30.3821 882.739 30.706C881.985 31.0256 881.075 31.1854 880.01 31.1854C878.953 31.1854 878.033 31.0234 877.248 30.6996C876.469 30.3757 875.859 29.8963 875.42 29.2614C874.986 28.6222 874.758 27.8317 874.736 26.8899H877.415C877.445 27.3288 877.57 27.6953 877.792 27.9893C878.018 28.2791 878.318 28.4986 878.693 28.6477C879.072 28.7926 879.501 28.8651 879.978 28.8651C880.447 28.8651 880.854 28.7969 881.199 28.6605C881.548 28.5241 881.819 28.3345 882.011 28.0916C882.202 27.8487 882.298 27.5696 882.298 27.2543C882.298 26.9602 882.211 26.7131 882.036 26.5128C881.866 26.3125 881.614 26.142 881.282 26.0014C880.954 25.8608 880.551 25.733 880.074 25.6179L878.648 25.2599C877.545 24.9915 876.673 24.5717 876.034 24.0007C875.395 23.4297 875.077 22.6605 875.082 21.6932C875.077 20.9006 875.288 20.2081 875.714 19.6158C876.145 19.0234 876.735 18.5611 877.485 18.2287C878.235 17.8963 879.087 17.7301 880.042 17.7301C881.013 17.7301 881.861 17.8963 882.586 18.2287C883.315 18.5611 883.881 19.0234 884.286 19.6158C884.691 20.2081 884.9 20.8942 884.913 21.674H882.26ZM886.953 31V17.9091H889.721V23.3104H895.34V17.9091H898.101V31H895.34V25.5923H889.721V31H886.953ZM912.413 24.4545C912.413 25.8821 912.142 27.0966 911.601 28.098C911.064 29.0994 910.331 29.8643 909.402 30.3928C908.477 30.9169 907.438 31.179 906.283 31.179C905.119 31.179 904.075 30.9148 903.151 30.3864C902.226 29.858 901.495 29.093 900.958 28.0916C900.421 27.0902 900.153 25.8778 900.153 24.4545C900.153 23.027 900.421 21.8125 900.958 20.8111C901.495 19.8097 902.226 19.0469 903.151 18.5227C904.075 17.9943 905.119 17.7301 906.283 17.7301C907.438 17.7301 908.477 17.9943 909.402 18.5227C910.331 19.0469 911.064 19.8097 911.601 20.8111C912.142 21.8125 912.413 23.027 912.413 24.4545ZM909.607 24.4545C909.607 23.5298 909.468 22.75 909.191 22.1151C908.918 21.4801 908.533 20.9986 908.034 20.6705C907.536 20.3423 906.952 20.1783 906.283 20.1783C905.614 20.1783 905.03 20.3423 904.531 20.6705C904.033 20.9986 903.645 21.4801 903.368 22.1151C903.095 22.75 902.959 23.5298 902.959 24.4545C902.959 25.3793 903.095 26.1591 903.368 26.794C903.645 27.429 904.033 27.9105 904.531 28.2386C905.03 28.5668 905.614 28.7308 906.283 28.7308C906.952 28.7308 907.536 28.5668 908.034 28.2386C908.533 27.9105 908.918 27.429 909.191 26.794C909.468 26.1591 909.607 25.3793 909.607 24.4545ZM914.463 31V17.9091H919.628C920.621 17.9091 921.467 18.0987 922.165 18.478C922.864 18.853 923.397 19.375 923.763 20.044C924.134 20.7088 924.32 21.4759 924.32 22.3452C924.32 23.2145 924.132 23.9815 923.757 24.6463C923.382 25.3111 922.839 25.8288 922.127 26.1996C921.42 26.5703 920.563 26.7557 919.557 26.7557H916.266V24.5376H919.11C919.643 24.5376 920.082 24.446 920.427 24.2628C920.776 24.0753 921.036 23.8175 921.207 23.4893C921.381 23.157 921.469 22.7756 921.469 22.3452C921.469 21.9105 921.381 21.5312 921.207 21.2074C921.036 20.8793 920.776 20.6257 920.427 20.4467C920.077 20.2635 919.634 20.1719 919.097 20.1719H917.231V31H914.463Z" fill="black"/>
<path d="M978.26 21.674C978.209 21.1584 977.989 20.7578 977.601 20.4723C977.214 20.1868 976.687 20.044 976.023 20.044C975.571 20.044 975.19 20.108 974.878 20.2358C974.567 20.3594 974.329 20.532 974.163 20.7536C974.001 20.9751 973.92 21.2266 973.92 21.5078C973.911 21.7422 973.96 21.9467 974.067 22.1214C974.177 22.2962 974.329 22.4474 974.521 22.5753C974.712 22.6989 974.934 22.8075 975.185 22.9013C975.437 22.9908 975.705 23.0675 975.991 23.1314L977.167 23.4126C977.738 23.5405 978.262 23.7109 978.739 23.924C979.217 24.1371 979.63 24.3991 979.979 24.7102C980.329 25.0213 980.599 25.3878 980.791 25.8097C980.987 26.2315 981.087 26.7152 981.092 27.2607C981.087 28.0618 980.883 28.7564 980.478 29.3445C980.077 29.9283 979.498 30.3821 978.739 30.706C977.985 31.0256 977.075 31.1854 976.01 31.1854C974.953 31.1854 974.033 31.0234 973.248 30.6996C972.469 30.3757 971.859 29.8963 971.42 29.2614C970.986 28.6222 970.758 27.8317 970.736 26.8899H973.415C973.445 27.3288 973.57 27.6953 973.792 27.9893C974.018 28.2791 974.318 28.4986 974.693 28.6477C975.072 28.7926 975.501 28.8651 975.978 28.8651C976.447 28.8651 976.854 28.7969 977.199 28.6605C977.548 28.5241 977.819 28.3345 978.011 28.0916C978.202 27.8487 978.298 27.5696 978.298 27.2543C978.298 26.9602 978.211 26.7131 978.036 26.5128C977.866 26.3125 977.614 26.142 977.282 26.0014C976.954 25.8608 976.551 25.733 976.074 25.6179L974.648 25.2599C973.545 24.9915 972.673 24.5717 972.034 24.0007C971.395 23.4297 971.077 22.6605 971.082 21.6932C971.077 20.9006 971.288 20.2081 971.714 19.6158C972.145 19.0234 972.735 18.5611 973.485 18.2287C974.235 17.8963 975.087 17.7301 976.042 17.7301C977.013 17.7301 977.861 17.8963 978.586 18.2287C979.315 18.5611 979.881 19.0234 980.286 19.6158C980.691 20.2081 980.9 20.8942 980.913 21.674H978.26ZM982.953 31V17.9091H985.721V23.3104H991.34V17.9091H994.101V31H991.34V25.5923H985.721V31H982.953ZM1008.41 24.4545C1008.41 25.8821 1008.14 27.0966 1007.6 28.098C1007.06 29.0994 1006.33 29.8643 1005.4 30.3928C1004.48 30.9169 1003.44 31.179 1002.28 31.179C1001.12 31.179 1000.08 30.9148 999.151 30.3864C998.226 29.858 997.495 29.093 996.958 28.0916C996.421 27.0902 996.153 25.8778 996.153 24.4545C996.153 23.027 996.421 21.8125 996.958 20.8111C997.495 19.8097 998.226 19.0469 999.151 18.5227C1000.08 17.9943 1001.12 17.7301 1002.28 17.7301C1003.44 17.7301 1004.48 17.9943 1005.4 18.5227C1006.33 19.0469 1007.06 19.8097 1007.6 20.8111C1008.14 21.8125 1008.41 23.027 1008.41 24.4545ZM1005.61 24.4545C1005.61 23.5298 1005.47 22.75 1005.19 22.1151C1004.92 21.4801 1004.53 20.9986 1004.03 20.6705C1003.54 20.3423 1002.95 20.1783 1002.28 20.1783C1001.61 20.1783 1001.03 20.3423 1000.53 20.6705C1000.03 20.9986 999.645 21.4801 999.368 22.1151C999.095 22.75 998.959 23.5298 998.959 24.4545C998.959 25.3793 999.095 26.1591 999.368 26.794C999.645 27.429 1000.03 27.9105 1000.53 28.2386C1001.03 28.5668 1001.61 28.7308 1002.28 28.7308C1002.95 28.7308 1003.54 28.5668 1004.03 28.2386C1004.53 27.9105 1004.92 27.429 1005.19 26.794C1005.47 26.1591 1005.61 25.3793 1005.61 24.4545ZM1010.46 31V17.9091H1015.63C1016.62 17.9091 1017.47 18.0987 1018.17 18.478C1018.86 18.853 1019.4 19.375 1019.76 20.044C1020.13 20.7088 1020.32 21.4759 1020.32 22.3452C1020.32 23.2145 1020.13 23.9815 1019.76 24.6463C1019.38 25.3111 1018.84 25.8288 1018.13 26.1996C1017.42 26.5703 1016.56 26.7557 1015.56 26.7557H1012.27V24.5376H1015.11C1015.64 24.5376 1016.08 24.446 1016.43 24.2628C1016.78 24.0753 1017.04 23.8175 1017.21 23.4893C1017.38 23.157 1017.47 22.7756 1017.47 22.3452C1017.47 21.9105 1017.38 21.5312 1017.21 21.2074C1017.04 20.8793 1016.78 20.6257 1016.43 20.4467C1016.08 20.2635 1015.63 20.1719 1015.1 20.1719H1013.23V31H1010.46Z" fill="black"/>
<path d="M1074.26 21.674C1074.21 21.1584 1073.99 20.7578 1073.6 20.4723C1073.21 20.1868 1072.69 20.044 1072.02 20.044C1071.57 20.044 1071.19 20.108 1070.88 20.2358C1070.57 20.3594 1070.33 20.532 1070.16 20.7536C1070 20.9751 1069.92 21.2266 1069.92 21.5078C1069.91 21.7422 1069.96 21.9467 1070.07 22.1214C1070.18 22.2962 1070.33 22.4474 1070.52 22.5753C1070.71 22.6989 1070.93 22.8075 1071.19 22.9013C1071.44 22.9908 1071.71 23.0675 1071.99 23.1314L1073.17 23.4126C1073.74 23.5405 1074.26 23.7109 1074.74 23.924C1075.22 24.1371 1075.63 24.3991 1075.98 24.7102C1076.33 25.0213 1076.6 25.3878 1076.79 25.8097C1076.99 26.2315 1077.09 26.7152 1077.09 27.2607C1077.09 28.0618 1076.88 28.7564 1076.48 29.3445C1076.08 29.9283 1075.5 30.3821 1074.74 30.706C1073.98 31.0256 1073.08 31.1854 1072.01 31.1854C1070.95 31.1854 1070.03 31.0234 1069.25 30.6996C1068.47 30.3757 1067.86 29.8963 1067.42 29.2614C1066.99 28.6222 1066.76 27.8317 1066.74 26.8899H1069.41C1069.44 27.3288 1069.57 27.6953 1069.79 27.9893C1070.02 28.2791 1070.32 28.4986 1070.69 28.6477C1071.07 28.7926 1071.5 28.8651 1071.98 28.8651C1072.45 28.8651 1072.85 28.7969 1073.2 28.6605C1073.55 28.5241 1073.82 28.3345 1074.01 28.0916C1074.2 27.8487 1074.3 27.5696 1074.3 27.2543C1074.3 26.9602 1074.21 26.7131 1074.04 26.5128C1073.87 26.3125 1073.61 26.142 1073.28 26.0014C1072.95 25.8608 1072.55 25.733 1072.07 25.6179L1070.65 25.2599C1069.54 24.9915 1068.67 24.5717 1068.03 24.0007C1067.39 23.4297 1067.08 22.6605 1067.08 21.6932C1067.08 20.9006 1067.29 20.2081 1067.71 19.6158C1068.14 19.0234 1068.73 18.5611 1069.48 18.2287C1070.23 17.8963 1071.09 17.7301 1072.04 17.7301C1073.01 17.7301 1073.86 17.8963 1074.59 18.2287C1075.31 18.5611 1075.88 19.0234 1076.29 19.6158C1076.69 20.2081 1076.9 20.8942 1076.91 21.674H1074.26ZM1078.95 31V17.9091H1081.72V23.3104H1087.34V17.9091H1090.1V31H1087.34V25.5923H1081.72V31H1078.95ZM1104.41 24.4545C1104.41 25.8821 1104.14 27.0966 1103.6 28.098C1103.06 29.0994 1102.33 29.8643 1101.4 30.3928C1100.48 30.9169 1099.44 31.179 1098.28 31.179C1097.12 31.179 1096.08 30.9148 1095.15 30.3864C1094.23 29.858 1093.5 29.093 1092.96 28.0916C1092.42 27.0902 1092.15 25.8778 1092.15 24.4545C1092.15 23.027 1092.42 21.8125 1092.96 20.8111C1093.5 19.8097 1094.23 19.0469 1095.15 18.5227C1096.08 17.9943 1097.12 17.7301 1098.28 17.7301C1099.44 17.7301 1100.48 17.9943 1101.4 18.5227C1102.33 19.0469 1103.06 19.8097 1103.6 20.8111C1104.14 21.8125 1104.41 23.027 1104.41 24.4545ZM1101.61 24.4545C1101.61 23.5298 1101.47 22.75 1101.19 22.1151C1100.92 21.4801 1100.53 20.9986 1100.03 20.6705C1099.54 20.3423 1098.95 20.1783 1098.28 20.1783C1097.61 20.1783 1097.03 20.3423 1096.53 20.6705C1096.03 20.9986 1095.64 21.4801 1095.37 22.1151C1095.1 22.75 1094.96 23.5298 1094.96 24.4545C1094.96 25.3793 1095.1 26.1591 1095.37 26.794C1095.64 27.429 1096.03 27.9105 1096.53 28.2386C1097.03 28.5668 1097.61 28.7308 1098.28 28.7308C1098.95 28.7308 1099.54 28.5668 1100.03 28.2386C1100.53 27.9105 1100.92 27.429 1101.19 26.794C1101.47 26.1591 1101.61 25.3793 1101.61 24.4545ZM1106.46 31V17.9091H1111.63C1112.62 17.9091 1113.47 18.0987 1114.17 18.478C1114.86 18.853 1115.4 19.375 1115.76 20.044C1116.13 20.7088 1116.32 21.4759 1116.32 22.3452C1116.32 23.2145 1116.13 23.9815 1115.76 24.6463C1115.38 25.3111 1114.84 25.8288 1114.13 26.1996C1113.42 26.5703 1112.56 26.7557 1111.56 26.7557H1108.27V24.5376H1111.11C1111.64 24.5376 1112.08 24.446 1112.43 24.2628C1112.78 24.0753 1113.04 23.8175 1113.21 23.4893C1113.38 23.157 1113.47 22.7756 1113.47 22.3452C1113.47 21.9105 1113.38 21.5312 1113.21 21.2074C1113.04 20.8793 1112.78 20.6257 1112.43 20.4467C1112.08 20.2635 1111.63 20.1719 1111.1 20.1719H1109.23V31H1106.46Z" fill="black"/>
<path d="M1170.26 21.674C1170.21 21.1584 1169.99 20.7578 1169.6 20.4723C1169.21 20.1868 1168.69 20.044 1168.02 20.044C1167.57 20.044 1167.19 20.108 1166.88 20.2358C1166.57 20.3594 1166.33 20.532 1166.16 20.7536C1166 20.9751 1165.92 21.2266 1165.92 21.5078C1165.91 21.7422 1165.96 21.9467 1166.07 22.1214C1166.18 22.2962 1166.33 22.4474 1166.52 22.5753C1166.71 22.6989 1166.93 22.8075 1167.19 22.9013C1167.44 22.9908 1167.71 23.0675 1167.99 23.1314L1169.17 23.4126C1169.74 23.5405 1170.26 23.7109 1170.74 23.924C1171.22 24.1371 1171.63 24.3991 1171.98 24.7102C1172.33 25.0213 1172.6 25.3878 1172.79 25.8097C1172.99 26.2315 1173.09 26.7152 1173.09 27.2607C1173.09 28.0618 1172.88 28.7564 1172.48 29.3445C1172.08 29.9283 1171.5 30.3821 1170.74 30.706C1169.98 31.0256 1169.08 31.1854 1168.01 31.1854C1166.95 31.1854 1166.03 31.0234 1165.25 30.6996C1164.47 30.3757 1163.86 29.8963 1163.42 29.2614C1162.99 28.6222 1162.76 27.8317 1162.74 26.8899H1165.41C1165.44 27.3288 1165.57 27.6953 1165.79 27.9893C1166.02 28.2791 1166.32 28.4986 1166.69 28.6477C1167.07 28.7926 1167.5 28.8651 1167.98 28.8651C1168.45 28.8651 1168.85 28.7969 1169.2 28.6605C1169.55 28.5241 1169.82 28.3345 1170.01 28.0916C1170.2 27.8487 1170.3 27.5696 1170.3 27.2543C1170.3 26.9602 1170.21 26.7131 1170.04 26.5128C1169.87 26.3125 1169.61 26.142 1169.28 26.0014C1168.95 25.8608 1168.55 25.733 1168.07 25.6179L1166.65 25.2599C1165.54 24.9915 1164.67 24.5717 1164.03 24.0007C1163.39 23.4297 1163.08 22.6605 1163.08 21.6932C1163.08 20.9006 1163.29 20.2081 1163.71 19.6158C1164.14 19.0234 1164.73 18.5611 1165.48 18.2287C1166.23 17.8963 1167.09 17.7301 1168.04 17.7301C1169.01 17.7301 1169.86 17.8963 1170.59 18.2287C1171.31 18.5611 1171.88 19.0234 1172.29 19.6158C1172.69 20.2081 1172.9 20.8942 1172.91 21.674H1170.26ZM1174.95 31V17.9091H1177.72V23.3104H1183.34V17.9091H1186.1V31H1183.34V25.5923H1177.72V31H1174.95ZM1200.41 24.4545C1200.41 25.8821 1200.14 27.0966 1199.6 28.098C1199.06 29.0994 1198.33 29.8643 1197.4 30.3928C1196.48 30.9169 1195.44 31.179 1194.28 31.179C1193.12 31.179 1192.08 30.9148 1191.15 30.3864C1190.23 29.858 1189.5 29.093 1188.96 28.0916C1188.42 27.0902 1188.15 25.8778 1188.15 24.4545C1188.15 23.027 1188.42 21.8125 1188.96 20.8111C1189.5 19.8097 1190.23 19.0469 1191.15 18.5227C1192.08 17.9943 1193.12 17.7301 1194.28 17.7301C1195.44 17.7301 1196.48 17.9943 1197.4 18.5227C1198.33 19.0469 1199.06 19.8097 1199.6 20.8111C1200.14 21.8125 1200.41 23.027 1200.41 24.4545ZM1197.61 24.4545C1197.61 23.5298 1197.47 22.75 1197.19 22.1151C1196.92 21.4801 1196.53 20.9986 1196.03 20.6705C1195.54 20.3423 1194.95 20.1783 1194.28 20.1783C1193.61 20.1783 1193.03 20.3423 1192.53 20.6705C1192.03 20.9986 1191.64 21.4801 1191.37 22.1151C1191.1 22.75 1190.96 23.5298 1190.96 24.4545C1190.96 25.3793 1191.1 26.1591 1191.37 26.794C1191.64 27.429 1192.03 27.9105 1192.53 28.2386C1193.03 28.5668 1193.61 28.7308 1194.28 28.7308C1194.95 28.7308 1195.54 28.5668 1196.03 28.2386C1196.53 27.9105 1196.92 27.429 1197.19 26.794C1197.47 26.1591 1197.61 25.3793 1197.61 24.4545ZM1202.46 31V17.9091H1207.63C1208.62 17.9091 1209.47 18.0987 1210.17 18.478C1210.86 18.853 1211.4 19.375 1211.76 20.044C1212.13 20.7088 1212.32 21.4759 1212.32 22.3452C1212.32 23.2145 1212.13 23.9815 1211.76 24.6463C1211.38 25.3111 1210.84 25.8288 1210.13 26.1996C1209.42 26.5703 1208.56 26.7557 1207.56 26.7557H1204.27V24.5376H1207.11C1207.64 24.5376 1208.08 24.446 1208.43 24.2628C1208.78 24.0753 1209.04 23.8175 1209.21 23.4893C1209.38 23.157 1209.47 22.7756 1209.47 22.3452C1209.47 21.9105 1209.38 21.5312 1209.21 21.2074C1209.04 20.8793 1208.78 20.6257 1208.43 20.4467C1208.08 20.2635 1207.63 20.1719 1207.1 20.1719H1205.23V31H1202.46Z" fill="black"/>
<path d="M1266.26 21.674C1266.21 21.1584 1265.99 20.7578 1265.6 20.4723C1265.21 20.1868 1264.69 20.044 1264.02 20.044C1263.57 20.044 1263.19 20.108 1262.88 20.2358C1262.57 20.3594 1262.33 20.532 1262.16 20.7536C1262 20.9751 1261.92 21.2266 1261.92 21.5078C1261.91 21.7422 1261.96 21.9467 1262.07 22.1214C1262.18 22.2962 1262.33 22.4474 1262.52 22.5753C1262.71 22.6989 1262.93 22.8075 1263.19 22.9013C1263.44 22.9908 1263.71 23.0675 1263.99 23.1314L1265.17 23.4126C1265.74 23.5405 1266.26 23.7109 1266.74 23.924C1267.22 24.1371 1267.63 24.3991 1267.98 24.7102C1268.33 25.0213 1268.6 25.3878 1268.79 25.8097C1268.99 26.2315 1269.09 26.7152 1269.09 27.2607C1269.09 28.0618 1268.88 28.7564 1268.48 29.3445C1268.08 29.9283 1267.5 30.3821 1266.74 30.706C1265.98 31.0256 1265.08 31.1854 1264.01 31.1854C1262.95 31.1854 1262.03 31.0234 1261.25 30.6996C1260.47 30.3757 1259.86 29.8963 1259.42 29.2614C1258.99 28.6222 1258.76 27.8317 1258.74 26.8899H1261.41C1261.44 27.3288 1261.57 27.6953 1261.79 27.9893C1262.02 28.2791 1262.32 28.4986 1262.69 28.6477C1263.07 28.7926 1263.5 28.8651 1263.98 28.8651C1264.45 28.8651 1264.85 28.7969 1265.2 28.6605C1265.55 28.5241 1265.82 28.3345 1266.01 28.0916C1266.2 27.8487 1266.3 27.5696 1266.3 27.2543C1266.3 26.9602 1266.21 26.7131 1266.04 26.5128C1265.87 26.3125 1265.61 26.142 1265.28 26.0014C1264.95 25.8608 1264.55 25.733 1264.07 25.6179L1262.65 25.2599C1261.54 24.9915 1260.67 24.5717 1260.03 24.0007C1259.39 23.4297 1259.08 22.6605 1259.08 21.6932C1259.08 20.9006 1259.29 20.2081 1259.71 19.6158C1260.14 19.0234 1260.73 18.5611 1261.48 18.2287C1262.23 17.8963 1263.09 17.7301 1264.04 17.7301C1265.01 17.7301 1265.86 17.8963 1266.59 18.2287C1267.31 18.5611 1267.88 19.0234 1268.29 19.6158C1268.69 20.2081 1268.9 20.8942 1268.91 21.674H1266.26ZM1270.95 31V17.9091H1273.72V23.3104H1279.34V17.9091H1282.1V31H1279.34V25.5923H1273.72V31H1270.95ZM1296.41 24.4545C1296.41 25.8821 1296.14 27.0966 1295.6 28.098C1295.06 29.0994 1294.33 29.8643 1293.4 30.3928C1292.48 30.9169 1291.44 31.179 1290.28 31.179C1289.12 31.179 1288.08 30.9148 1287.15 30.3864C1286.23 29.858 1285.5 29.093 1284.96 28.0916C1284.42 27.0902 1284.15 25.8778 1284.15 24.4545C1284.15 23.027 1284.42 21.8125 1284.96 20.8111C1285.5 19.8097 1286.23 19.0469 1287.15 18.5227C1288.08 17.9943 1289.12 17.7301 1290.28 17.7301C1291.44 17.7301 1292.48 17.9943 1293.4 18.5227C1294.33 19.0469 1295.06 19.8097 1295.6 20.8111C1296.14 21.8125 1296.41 23.027 1296.41 24.4545ZM1293.61 24.4545C1293.61 23.5298 1293.47 22.75 1293.19 22.1151C1292.92 21.4801 1292.53 20.9986 1292.03 20.6705C1291.54 20.3423 1290.95 20.1783 1290.28 20.1783C1289.61 20.1783 1289.03 20.3423 1288.53 20.6705C1288.03 20.9986 1287.64 21.4801 1287.37 22.1151C1287.1 22.75 1286.96 23.5298 1286.96 24.4545C1286.96 25.3793 1287.1 26.1591 1287.37 26.794C1287.64 27.429 1288.03 27.9105 1288.53 28.2386C1289.03 28.5668 1289.61 28.7308 1290.28 28.7308C1290.95 28.7308 1291.54 28.5668 1292.03 28.2386C1292.53 27.9105 1292.92 27.429 1293.19 26.794C1293.47 26.1591 1293.61 25.3793 1293.61 24.4545ZM1298.46 31V17.9091H1303.63C1304.62 17.9091 1305.47 18.0987 1306.17 18.478C1306.86 18.853 1307.4 19.375 1307.76 20.044C1308.13 20.7088 1308.32 21.4759 1308.32 22.3452C1308.32 23.2145 1308.13 23.9815 1307.76 24.6463C1307.38 25.3111 1306.84 25.8288 1306.13 26.1996C1305.42 26.5703 1304.56 26.7557 1303.56 26.7557H1300.27V24.5376H1303.11C1303.64 24.5376 1304.08 24.446 1304.43 24.2628C1304.78 24.0753 1305.04 23.8175 1305.21 23.4893C1305.38 23.157 1305.47 22.7756 1305.47 22.3452C1305.47 21.9105 1305.38 21.5312 1305.21 21.2074C1305.04 20.8793 1304.78 20.6257 1304.43 20.4467C1304.08 20.2635 1303.63 20.1719 1303.1 20.1719H1301.23V31H1298.46Z" fill="black"/>
<path d="M1362.26 21.674C1362.21 21.1584 1361.99 20.7578 1361.6 20.4723C1361.21 20.1868 1360.69 20.044 1360.02 20.044C1359.57 20.044 1359.19 20.108 1358.88 20.2358C1358.57 20.3594 1358.33 20.532 1358.16 20.7536C1358 20.9751 1357.92 21.2266 1357.92 21.5078C1357.91 21.7422 1357.96 21.9467 1358.07 22.1214C1358.18 22.2962 1358.33 22.4474 1358.52 22.5753C1358.71 22.6989 1358.93 22.8075 1359.19 22.9013C1359.44 22.9908 1359.71 23.0675 1359.99 23.1314L1361.17 23.4126C1361.74 23.5405 1362.26 23.7109 1362.74 23.924C1363.22 24.1371 1363.63 24.3991 1363.98 24.7102C1364.33 25.0213 1364.6 25.3878 1364.79 25.8097C1364.99 26.2315 1365.09 26.7152 1365.09 27.2607C1365.09 28.0618 1364.88 28.7564 1364.48 29.3445C1364.08 29.9283 1363.5 30.3821 1362.74 30.706C1361.98 31.0256 1361.08 31.1854 1360.01 31.1854C1358.95 31.1854 1358.03 31.0234 1357.25 30.6996C1356.47 30.3757 1355.86 29.8963 1355.42 29.2614C1354.99 28.6222 1354.76 27.8317 1354.74 26.8899H1357.41C1357.44 27.3288 1357.57 27.6953 1357.79 27.9893C1358.02 28.2791 1358.32 28.4986 1358.69 28.6477C1359.07 28.7926 1359.5 28.8651 1359.98 28.8651C1360.45 28.8651 1360.85 28.7969 1361.2 28.6605C1361.55 28.5241 1361.82 28.3345 1362.01 28.0916C1362.2 27.8487 1362.3 27.5696 1362.3 27.2543C1362.3 26.9602 1362.21 26.7131 1362.04 26.5128C1361.87 26.3125 1361.61 26.142 1361.28 26.0014C1360.95 25.8608 1360.55 25.733 1360.07 25.6179L1358.65 25.2599C1357.54 24.9915 1356.67 24.5717 1356.03 24.0007C1355.39 23.4297 1355.08 22.6605 1355.08 21.6932C1355.08 20.9006 1355.29 20.2081 1355.71 19.6158C1356.14 19.0234 1356.73 18.5611 1357.48 18.2287C1358.23 17.8963 1359.09 17.7301 1360.04 17.7301C1361.01 17.7301 1361.86 17.8963 1362.59 18.2287C1363.31 18.5611 1363.88 19.0234 1364.29 19.6158C1364.69 20.2081 1364.9 20.8942 1364.91 21.674H1362.26ZM1366.95 31V17.9091H1369.72V23.3104H1375.34V17.9091H1378.1V31H1375.34V25.5923H1369.72V31H1366.95ZM1392.41 24.4545C1392.41 25.8821 1392.14 27.0966 1391.6 28.098C1391.06 29.0994 1390.33 29.8643 1389.4 30.3928C1388.48 30.9169 1387.44 31.179 1386.28 31.179C1385.12 31.179 1384.08 30.9148 1383.15 30.3864C1382.23 29.858 1381.5 29.093 1380.96 28.0916C1380.42 27.0902 1380.15 25.8778 1380.15 24.4545C1380.15 23.027 1380.42 21.8125 1380.96 20.8111C1381.5 19.8097 1382.23 19.0469 1383.15 18.5227C1384.08 17.9943 1385.12 17.7301 1386.28 17.7301C1387.44 17.7301 1388.48 17.9943 1389.4 18.5227C1390.33 19.0469 1391.06 19.8097 1391.6 20.8111C1392.14 21.8125 1392.41 23.027 1392.41 24.4545ZM1389.61 24.4545C1389.61 23.5298 1389.47 22.75 1389.19 22.1151C1388.92 21.4801 1388.53 20.9986 1388.03 20.6705C1387.54 20.3423 1386.95 20.1783 1386.28 20.1783C1385.61 20.1783 1385.03 20.3423 1384.53 20.6705C1384.03 20.9986 1383.64 21.4801 1383.37 22.1151C1383.1 22.75 1382.96 23.5298 1382.96 24.4545C1382.96 25.3793 1383.1 26.1591 1383.37 26.794C1383.64 27.429 1384.03 27.9105 1384.53 28.2386C1385.03 28.5668 1385.61 28.7308 1386.28 28.7308C1386.95 28.7308 1387.54 28.5668 1388.03 28.2386C1388.53 27.9105 1388.92 27.429 1389.19 26.794C1389.47 26.1591 1389.61 25.3793 1389.61 24.4545ZM1394.46 31V17.9091H1399.63C1400.62 17.9091 1401.47 18.0987 1402.17 18.478C1402.86 18.853 1403.4 19.375 1403.76 20.044C1404.13 20.7088 1404.32 21.4759 1404.32 22.3452C1404.32 23.2145 1404.13 23.9815 1403.76 24.6463C1403.38 25.3111 1402.84 25.8288 1402.13 26.1996C1401.42 26.5703 1400.56 26.7557 1399.56 26.7557H1396.27V24.5376H1399.11C1399.64 24.5376 1400.08 24.446 1400.43 24.2628C1400.78 24.0753 1401.04 23.8175 1401.21 23.4893C1401.38 23.157 1401.47 22.7756 1401.47 22.3452C1401.47 21.9105 1401.38 21.5312 1401.21 21.2074C1401.04 20.8793 1400.78 20.6257 1400.43 20.4467C1400.08 20.2635 1399.63 20.1719 1399.1 20.1719H1397.23V31H1394.46Z" fill="black"/>
<path d="M1458.26 21.674C1458.21 21.1584 1457.99 20.7578 1457.6 20.4723C1457.21 20.1868 1456.69 20.044 1456.02 20.044C1455.57 20.044 1455.19 20.108 1454.88 20.2358C1454.57 20.3594 1454.33 20.532 1454.16 20.7536C1454 20.9751 1453.92 21.2266 1453.92 21.5078C1453.91 21.7422 1453.96 21.9467 1454.07 22.1214C1454.18 22.2962 1454.33 22.4474 1454.52 22.5753C1454.71 22.6989 1454.93 22.8075 1455.19 22.9013C1455.44 22.9908 1455.71 23.0675 1455.99 23.1314L1457.17 23.4126C1457.74 23.5405 1458.26 23.7109 1458.74 23.924C1459.22 24.1371 1459.63 24.3991 1459.98 24.7102C1460.33 25.0213 1460.6 25.3878 1460.79 25.8097C1460.99 26.2315 1461.09 26.7152 1461.09 27.2607C1461.09 28.0618 1460.88 28.7564 1460.48 29.3445C1460.08 29.9283 1459.5 30.3821 1458.74 30.706C1457.98 31.0256 1457.08 31.1854 1456.01 31.1854C1454.95 31.1854 1454.03 31.0234 1453.25 30.6996C1452.47 30.3757 1451.86 29.8963 1451.42 29.2614C1450.99 28.6222 1450.76 27.8317 1450.74 26.8899H1453.41C1453.44 27.3288 1453.57 27.6953 1453.79 27.9893C1454.02 28.2791 1454.32 28.4986 1454.69 28.6477C1455.07 28.7926 1455.5 28.8651 1455.98 28.8651C1456.45 28.8651 1456.85 28.7969 1457.2 28.6605C1457.55 28.5241 1457.82 28.3345 1458.01 28.0916C1458.2 27.8487 1458.3 27.5696 1458.3 27.2543C1458.3 26.9602 1458.21 26.7131 1458.04 26.5128C1457.87 26.3125 1457.61 26.142 1457.28 26.0014C1456.95 25.8608 1456.55 25.733 1456.07 25.6179L1454.65 25.2599C1453.54 24.9915 1452.67 24.5717 1452.03 24.0007C1451.39 23.4297 1451.08 22.6605 1451.08 21.6932C1451.08 20.9006 1451.29 20.2081 1451.71 19.6158C1452.14 19.0234 1452.73 18.5611 1453.48 18.2287C1454.23 17.8963 1455.09 17.7301 1456.04 17.7301C1457.01 17.7301 1457.86 17.8963 1458.59 18.2287C1459.31 18.5611 1459.88 19.0234 1460.29 19.6158C1460.69 20.2081 1460.9 20.8942 1460.91 21.674H1458.26ZM1462.95 31V17.9091H1465.72V23.3104H1471.34V17.9091H1474.1V31H1471.34V25.5923H1465.72V31H1462.95ZM1488.41 24.4545C1488.41 25.8821 1488.14 27.0966 1487.6 28.098C1487.06 29.0994 1486.33 29.8643 1485.4 30.3928C1484.48 30.9169 1483.44 31.179 1482.28 31.179C1481.12 31.179 1480.08 30.9148 1479.15 30.3864C1478.23 29.858 1477.5 29.093 1476.96 28.0916C1476.42 27.0902 1476.15 25.8778 1476.15 24.4545C1476.15 23.027 1476.42 21.8125 1476.96 20.8111C1477.5 19.8097 1478.23 19.0469 1479.15 18.5227C1480.08 17.9943 1481.12 17.7301 1482.28 17.7301C1483.44 17.7301 1484.48 17.9943 1485.4 18.5227C1486.33 19.0469 1487.06 19.8097 1487.6 20.8111C1488.14 21.8125 1488.41 23.027 1488.41 24.4545ZM1485.61 24.4545C1485.61 23.5298 1485.47 22.75 1485.19 22.1151C1484.92 21.4801 1484.53 20.9986 1484.03 20.6705C1483.54 20.3423 1482.95 20.1783 1482.28 20.1783C1481.61 20.1783 1481.03 20.3423 1480.53 20.6705C1480.03 20.9986 1479.64 21.4801 1479.37 22.1151C1479.1 22.75 1478.96 23.5298 1478.96 24.4545C1478.96 25.3793 1479.1 26.1591 1479.37 26.794C1479.64 27.429 1480.03 27.9105 1480.53 28.2386C1481.03 28.5668 1481.61 28.7308 1482.28 28.7308C1482.95 28.7308 1483.54 28.5668 1484.03 28.2386C1484.53 27.9105 1484.92 27.429 1485.19 26.794C1485.47 26.1591 1485.61 25.3793 1485.61 24.4545ZM1490.46 31V17.9091H1495.63C1496.62 17.9091 1497.47 18.0987 1498.17 18.478C1498.86 18.853 1499.4 19.375 1499.76 20.044C1500.13 20.7088 1500.32 21.4759 1500.32 22.3452C1500.32 23.2145 1500.13 23.9815 1499.76 24.6463C1499.38 25.3111 1498.84 25.8288 1498.13 26.1996C1497.42 26.5703 1496.56 26.7557 1495.56 26.7557H1492.27V24.5376H1495.11C1495.64 24.5376 1496.08 24.446 1496.43 24.2628C1496.78 24.0753 1497.04 23.8175 1497.21 23.4893C1497.38 23.157 1497.47 22.7756 1497.47 22.3452C1497.47 21.9105 1497.38 21.5312 1497.21 21.2074C1497.04 20.8793 1496.78 20.6257 1496.43 20.4467C1496.08 20.2635 1495.63 20.1719 1495.1 20.1719H1493.23V31H1490.46Z" fill="black"/>
<path d="M1554.26 21.674C1554.21 21.1584 1553.99 20.7578 1553.6 20.4723C1553.21 20.1868 1552.69 20.044 1552.02 20.044C1551.57 20.044 1551.19 20.108 1550.88 20.2358C1550.57 20.3594 1550.33 20.532 1550.16 20.7536C1550 20.9751 1549.92 21.2266 1549.92 21.5078C1549.91 21.7422 1549.96 21.9467 1550.07 22.1214C1550.18 22.2962 1550.33 22.4474 1550.52 22.5753C1550.71 22.6989 1550.93 22.8075 1551.19 22.9013C1551.44 22.9908 1551.71 23.0675 1551.99 23.1314L1553.17 23.4126C1553.74 23.5405 1554.26 23.7109 1554.74 23.924C1555.22 24.1371 1555.63 24.3991 1555.98 24.7102C1556.33 25.0213 1556.6 25.3878 1556.79 25.8097C1556.99 26.2315 1557.09 26.7152 1557.09 27.2607C1557.09 28.0618 1556.88 28.7564 1556.48 29.3445C1556.08 29.9283 1555.5 30.3821 1554.74 30.706C1553.98 31.0256 1553.08 31.1854 1552.01 31.1854C1550.95 31.1854 1550.03 31.0234 1549.25 30.6996C1548.47 30.3757 1547.86 29.8963 1547.42 29.2614C1546.99 28.6222 1546.76 27.8317 1546.74 26.8899H1549.41C1549.44 27.3288 1549.57 27.6953 1549.79 27.9893C1550.02 28.2791 1550.32 28.4986 1550.69 28.6477C1551.07 28.7926 1551.5 28.8651 1551.98 28.8651C1552.45 28.8651 1552.85 28.7969 1553.2 28.6605C1553.55 28.5241 1553.82 28.3345 1554.01 28.0916C1554.2 27.8487 1554.3 27.5696 1554.3 27.2543C1554.3 26.9602 1554.21 26.7131 1554.04 26.5128C1553.87 26.3125 1553.61 26.142 1553.28 26.0014C1552.95 25.8608 1552.55 25.733 1552.07 25.6179L1550.65 25.2599C1549.54 24.9915 1548.67 24.5717 1548.03 24.0007C1547.39 23.4297 1547.08 22.6605 1547.08 21.6932C1547.08 20.9006 1547.29 20.2081 1547.71 19.6158C1548.14 19.0234 1548.73 18.5611 1549.48 18.2287C1550.23 17.8963 1551.09 17.7301 1552.04 17.7301C1553.01 17.7301 1553.86 17.8963 1554.59 18.2287C1555.31 18.5611 1555.88 19.0234 1556.29 19.6158C1556.69 20.2081 1556.9 20.8942 1556.91 21.674H1554.26ZM1558.95 31V17.9091H1561.72V23.3104H1567.34V17.9091H1570.1V31H1567.34V25.5923H1561.72V31H1558.95ZM1584.41 24.4545C1584.41 25.8821 1584.14 27.0966 1583.6 28.098C1583.06 29.0994 1582.33 29.8643 1581.4 30.3928C1580.48 30.9169 1579.44 31.179 1578.28 31.179C1577.12 31.179 1576.08 30.9148 1575.15 30.3864C1574.23 29.858 1573.5 29.093 1572.96 28.0916C1572.42 27.0902 1572.15 25.8778 1572.15 24.4545C1572.15 23.027 1572.42 21.8125 1572.96 20.8111C1573.5 19.8097 1574.23 19.0469 1575.15 18.5227C1576.08 17.9943 1577.12 17.7301 1578.28 17.7301C1579.44 17.7301 1580.48 17.9943 1581.4 18.5227C1582.33 19.0469 1583.06 19.8097 1583.6 20.8111C1584.14 21.8125 1584.41 23.027 1584.41 24.4545ZM1581.61 24.4545C1581.61 23.5298 1581.47 22.75 1581.19 22.1151C1580.92 21.4801 1580.53 20.9986 1580.03 20.6705C1579.54 20.3423 1578.95 20.1783 1578.28 20.1783C1577.61 20.1783 1577.03 20.3423 1576.53 20.6705C1576.03 20.9986 1575.64 21.4801 1575.37 22.1151C1575.1 22.75 1574.96 23.5298 1574.96 24.4545C1574.96 25.3793 1575.1 26.1591 1575.37 26.794C1575.64 27.429 1576.03 27.9105 1576.53 28.2386C1577.03 28.5668 1577.61 28.7308 1578.28 28.7308C1578.95 28.7308 1579.54 28.5668 1580.03 28.2386C1580.53 27.9105 1580.92 27.429 1581.19 26.794C1581.47 26.1591 1581.61 25.3793 1581.61 24.4545ZM1586.46 31V17.9091H1591.63C1592.62 17.9091 1593.47 18.0987 1594.17 18.478C1594.86 18.853 1595.4 19.375 1595.76 20.044C1596.13 20.7088 1596.32 21.4759 1596.32 22.3452C1596.32 23.2145 1596.13 23.9815 1595.76 24.6463C1595.38 25.3111 1594.84 25.8288 1594.13 26.1996C1593.42 26.5703 1592.56 26.7557 1591.56 26.7557H1588.27V24.5376H1591.11C1591.64 24.5376 1592.08 24.446 1592.43 24.2628C1592.78 24.0753 1593.04 23.8175 1593.21 23.4893C1593.38 23.157 1593.47 22.7756 1593.47 22.3452C1593.47 21.9105 1593.38 21.5312 1593.21 21.2074C1593.04 20.8793 1592.78 20.6257 1592.43 20.4467C1592.08 20.2635 1591.63 20.1719 1591.1 20.1719H1589.23V31H1586.46Z" fill="black"/>
<path d="M1650.26 21.674C1650.21 21.1584 1649.99 20.7578 1649.6 20.4723C1649.21 20.1868 1648.69 20.044 1648.02 20.044C1647.57 20.044 1647.19 20.108 1646.88 20.2358C1646.57 20.3594 1646.33 20.532 1646.16 20.7536C1646 20.9751 1645.92 21.2266 1645.92 21.5078C1645.91 21.7422 1645.96 21.9467 1646.07 22.1214C1646.18 22.2962 1646.33 22.4474 1646.52 22.5753C1646.71 22.6989 1646.93 22.8075 1647.19 22.9013C1647.44 22.9908 1647.71 23.0675 1647.99 23.1314L1649.17 23.4126C1649.74 23.5405 1650.26 23.7109 1650.74 23.924C1651.22 24.1371 1651.63 24.3991 1651.98 24.7102C1652.33 25.0213 1652.6 25.3878 1652.79 25.8097C1652.99 26.2315 1653.09 26.7152 1653.09 27.2607C1653.09 28.0618 1652.88 28.7564 1652.48 29.3445C1652.08 29.9283 1651.5 30.3821 1650.74 30.706C1649.98 31.0256 1649.08 31.1854 1648.01 31.1854C1646.95 31.1854 1646.03 31.0234 1645.25 30.6996C1644.47 30.3757 1643.86 29.8963 1643.42 29.2614C1642.99 28.6222 1642.76 27.8317 1642.74 26.8899H1645.41C1645.44 27.3288 1645.57 27.6953 1645.79 27.9893C1646.02 28.2791 1646.32 28.4986 1646.69 28.6477C1647.07 28.7926 1647.5 28.8651 1647.98 28.8651C1648.45 28.8651 1648.85 28.7969 1649.2 28.6605C1649.55 28.5241 1649.82 28.3345 1650.01 28.0916C1650.2 27.8487 1650.3 27.5696 1650.3 27.2543C1650.3 26.9602 1650.21 26.7131 1650.04 26.5128C1649.87 26.3125 1649.61 26.142 1649.28 26.0014C1648.95 25.8608 1648.55 25.733 1648.07 25.6179L1646.65 25.2599C1645.54 24.9915 1644.67 24.5717 1644.03 24.0007C1643.39 23.4297 1643.08 22.6605 1643.08 21.6932C1643.08 20.9006 1643.29 20.2081 1643.71 19.6158C1644.14 19.0234 1644.73 18.5611 1645.48 18.2287C1646.23 17.8963 1647.09 17.7301 1648.04 17.7301C1649.01 17.7301 1649.86 17.8963 1650.59 18.2287C1651.31 18.5611 1651.88 19.0234 1652.29 19.6158C1652.69 20.2081 1652.9 20.8942 1652.91 21.674H1650.26ZM1654.95 31V17.9091H1657.72V23.3104H1663.34V17.9091H1666.1V31H1663.34V25.5923H1657.72V31H1654.95ZM1680.41 24.4545C1680.41 25.8821 1680.14 27.0966 1679.6 28.098C1679.06 29.0994 1678.33 29.8643 1677.4 30.3928C1676.48 30.9169 1675.44 31.179 1674.28 31.179C1673.12 31.179 1672.08 30.9148 1671.15 30.3864C1670.23 29.858 1669.5 29.093 1668.96 28.0916C1668.42 27.0902 1668.15 25.8778 1668.15 24.4545C1668.15 23.027 1668.42 21.8125 1668.96 20.8111C1669.5 19.8097 1670.23 19.0469 1671.15 18.5227C1672.08 17.9943 1673.12 17.7301 1674.28 17.7301C1675.44 17.7301 1676.48 17.9943 1677.4 18.5227C1678.33 19.0469 1679.06 19.8097 1679.6 20.8111C1680.14 21.8125 1680.41 23.027 1680.41 24.4545ZM1677.61 24.4545C1677.61 23.5298 1677.47 22.75 1677.19 22.1151C1676.92 21.4801 1676.53 20.9986 1676.03 20.6705C1675.54 20.3423 1674.95 20.1783 1674.28 20.1783C1673.61 20.1783 1673.03 20.3423 1672.53 20.6705C1672.03 20.9986 1671.64 21.4801 1671.37 22.1151C1671.1 22.75 1670.96 23.5298 1670.96 24.4545C1670.96 25.3793 1671.1 26.1591 1671.37 26.794C1671.64 27.429 1672.03 27.9105 1672.53 28.2386C1673.03 28.5668 1673.61 28.7308 1674.28 28.7308C1674.95 28.7308 1675.54 28.5668 1676.03 28.2386C1676.53 27.9105 1676.92 27.429 1677.19 26.794C1677.47 26.1591 1677.61 25.3793 1677.61 24.4545ZM1682.46 31V17.9091H1687.63C1688.62 17.9091 1689.47 18.0987 1690.17 18.478C1690.86 18.853 1691.4 19.375 1691.76 20.044C1692.13 20.7088 1692.32 21.4759 1692.32 22.3452C1692.32 23.2145 1692.13 23.9815 1691.76 24.6463C1691.38 25.3111 1690.84 25.8288 1690.13 26.1996C1689.42 26.5703 1688.56 26.7557 1687.56 26.7557H1684.27V24.5376H1687.11C1687.64 24.5376 1688.08 24.446 1688.43 24.2628C1688.78 24.0753 1689.04 23.8175 1689.21 23.4893C1689.38 23.157 1689.47 22.7756 1689.47 22.3452C1689.47 21.9105 1689.38 21.5312 1689.21 21.2074C1689.04 20.8793 1688.78 20.6257 1688.43 20.4467C1688.08 20.2635 1687.63 20.1719 1687.1 20.1719H1685.23V31H1682.46Z" fill="black"/>
<path d="M1746.26 21.674C1746.21 21.1584 1745.99 20.7578 1745.6 20.4723C1745.21 20.1868 1744.69 20.044 1744.02 20.044C1743.57 20.044 1743.19 20.108 1742.88 20.2358C1742.57 20.3594 1742.33 20.532 1742.16 20.7536C1742 20.9751 1741.92 21.2266 1741.92 21.5078C1741.91 21.7422 1741.96 21.9467 1742.07 22.1214C1742.18 22.2962 1742.33 22.4474 1742.52 22.5753C1742.71 22.6989 1742.93 22.8075 1743.19 22.9013C1743.44 22.9908 1743.71 23.0675 1743.99 23.1314L1745.17 23.4126C1745.74 23.5405 1746.26 23.7109 1746.74 23.924C1747.22 24.1371 1747.63 24.3991 1747.98 24.7102C1748.33 25.0213 1748.6 25.3878 1748.79 25.8097C1748.99 26.2315 1749.09 26.7152 1749.09 27.2607C1749.09 28.0618 1748.88 28.7564 1748.48 29.3445C1748.08 29.9283 1747.5 30.3821 1746.74 30.706C1745.98 31.0256 1745.08 31.1854 1744.01 31.1854C1742.95 31.1854 1742.03 31.0234 1741.25 30.6996C1740.47 30.3757 1739.86 29.8963 1739.42 29.2614C1738.99 28.6222 1738.76 27.8317 1738.74 26.8899H1741.41C1741.44 27.3288 1741.57 27.6953 1741.79 27.9893C1742.02 28.2791 1742.32 28.4986 1742.69 28.6477C1743.07 28.7926 1743.5 28.8651 1743.98 28.8651C1744.45 28.8651 1744.85 28.7969 1745.2 28.6605C1745.55 28.5241 1745.82 28.3345 1746.01 28.0916C1746.2 27.8487 1746.3 27.5696 1746.3 27.2543C1746.3 26.9602 1746.21 26.7131 1746.04 26.5128C1745.87 26.3125 1745.61 26.142 1745.28 26.0014C1744.95 25.8608 1744.55 25.733 1744.07 25.6179L1742.65 25.2599C1741.54 24.9915 1740.67 24.5717 1740.03 24.0007C1739.39 23.4297 1739.08 22.6605 1739.08 21.6932C1739.08 20.9006 1739.29 20.2081 1739.71 19.6158C1740.14 19.0234 1740.73 18.5611 1741.48 18.2287C1742.23 17.8963 1743.09 17.7301 1744.04 17.7301C1745.01 17.7301 1745.86 17.8963 1746.59 18.2287C1747.31 18.5611 1747.88 19.0234 1748.29 19.6158C1748.69 20.2081 1748.9 20.8942 1748.91 21.674H1746.26ZM1750.95 31V17.9091H1753.72V23.3104H1759.34V17.9091H1762.1V31H1759.34V25.5923H1753.72V31H1750.95ZM1776.41 24.4545C1776.41 25.8821 1776.14 27.0966 1775.6 28.098C1775.06 29.0994 1774.33 29.8643 1773.4 30.3928C1772.48 30.9169 1771.44 31.179 1770.28 31.179C1769.12 31.179 1768.08 30.9148 1767.15 30.3864C1766.23 29.858 1765.5 29.093 1764.96 28.0916C1764.42 27.0902 1764.15 25.8778 1764.15 24.4545C1764.15 23.027 1764.42 21.8125 1764.96 20.8111C1765.5 19.8097 1766.23 19.0469 1767.15 18.5227C1768.08 17.9943 1769.12 17.7301 1770.28 17.7301C1771.44 17.7301 1772.48 17.9943 1773.4 18.5227C1774.33 19.0469 1775.06 19.8097 1775.6 20.8111C1776.14 21.8125 1776.41 23.027 1776.41 24.4545ZM1773.61 24.4545C1773.61 23.5298 1773.47 22.75 1773.19 22.1151C1772.92 21.4801 1772.53 20.9986 1772.03 20.6705C1771.54 20.3423 1770.95 20.1783 1770.28 20.1783C1769.61 20.1783 1769.03 20.3423 1768.53 20.6705C1768.03 20.9986 1767.64 21.4801 1767.37 22.1151C1767.1 22.75 1766.96 23.5298 1766.96 24.4545C1766.96 25.3793 1767.1 26.1591 1767.37 26.794C1767.64 27.429 1768.03 27.9105 1768.53 28.2386C1769.03 28.5668 1769.61 28.7308 1770.28 28.7308C1770.95 28.7308 1771.54 28.5668 1772.03 28.2386C1772.53 27.9105 1772.92 27.429 1773.19 26.794C1773.47 26.1591 1773.61 25.3793 1773.61 24.4545ZM1778.46 31V17.9091H1783.63C1784.62 17.9091 1785.47 18.0987 1786.17 18.478C1786.86 18.853 1787.4 19.375 1787.76 20.044C1788.13 20.7088 1788.32 21.4759 1788.32 22.3452C1788.32 23.2145 1788.13 23.9815 1787.76 24.6463C1787.38 25.3111 1786.84 25.8288 1786.13 26.1996C1785.42 26.5703 1784.56 26.7557 1783.56 26.7557H1780.27V24.5376H1783.11C1783.64 24.5376 1784.08 24.446 1784.43 24.2628C1784.78 24.0753 1785.04 23.8175 1785.21 23.4893C1785.38 23.157 1785.47 22.7756 1785.47 22.3452C1785.47 21.9105 1785.38 21.5312 1785.21 21.2074C1785.04 20.8793 1784.78 20.6257 1784.43 20.4467C1784.08 20.2635 1783.63 20.1719 1783.1 20.1719H1781.23V31H1778.46Z" fill="black"/>
<path d="M1842.26 21.674C1842.21 21.1584 1841.99 20.7578 1841.6 20.4723C1841.21 20.1868 1840.69 20.044 1840.02 20.044C1839.57 20.044 1839.19 20.108 1838.88 20.2358C1838.57 20.3594 1838.33 20.532 1838.16 20.7536C1838 20.9751 1837.92 21.2266 1837.92 21.5078C1837.91 21.7422 1837.96 21.9467 1838.07 22.1214C1838.18 22.2962 1838.33 22.4474 1838.52 22.5753C1838.71 22.6989 1838.93 22.8075 1839.19 22.9013C1839.44 22.9908 1839.71 23.0675 1839.99 23.1314L1841.17 23.4126C1841.74 23.5405 1842.26 23.7109 1842.74 23.924C1843.22 24.1371 1843.63 24.3991 1843.98 24.7102C1844.33 25.0213 1844.6 25.3878 1844.79 25.8097C1844.99 26.2315 1845.09 26.7152 1845.09 27.2607C1845.09 28.0618 1844.88 28.7564 1844.48 29.3445C1844.08 29.9283 1843.5 30.3821 1842.74 30.706C1841.98 31.0256 1841.08 31.1854 1840.01 31.1854C1838.95 31.1854 1838.03 31.0234 1837.25 30.6996C1836.47 30.3757 1835.86 29.8963 1835.42 29.2614C1834.99 28.6222 1834.76 27.8317 1834.74 26.8899H1837.41C1837.44 27.3288 1837.57 27.6953 1837.79 27.9893C1838.02 28.2791 1838.32 28.4986 1838.69 28.6477C1839.07 28.7926 1839.5 28.8651 1839.98 28.8651C1840.45 28.8651 1840.85 28.7969 1841.2 28.6605C1841.55 28.5241 1841.82 28.3345 1842.01 28.0916C1842.2 27.8487 1842.3 27.5696 1842.3 27.2543C1842.3 26.9602 1842.21 26.7131 1842.04 26.5128C1841.87 26.3125 1841.61 26.142 1841.28 26.0014C1840.95 25.8608 1840.55 25.733 1840.07 25.6179L1838.65 25.2599C1837.54 24.9915 1836.67 24.5717 1836.03 24.0007C1835.39 23.4297 1835.08 22.6605 1835.08 21.6932C1835.08 20.9006 1835.29 20.2081 1835.71 19.6158C1836.14 19.0234 1836.73 18.5611 1837.48 18.2287C1838.23 17.8963 1839.09 17.7301 1840.04 17.7301C1841.01 17.7301 1841.86 17.8963 1842.59 18.2287C1843.31 18.5611 1843.88 19.0234 1844.29 19.6158C1844.69 20.2081 1844.9 20.8942 1844.91 21.674H1842.26ZM1846.95 31V17.9091H1849.72V23.3104H1855.34V17.9091H1858.1V31H1855.34V25.5923H1849.72V31H1846.95ZM1872.41 24.4545C1872.41 25.8821 1872.14 27.0966 1871.6 28.098C1871.06 29.0994 1870.33 29.8643 1869.4 30.3928C1868.48 30.9169 1867.44 31.179 1866.28 31.179C1865.12 31.179 1864.08 30.9148 1863.15 30.3864C1862.23 29.858 1861.5 29.093 1860.96 28.0916C1860.42 27.0902 1860.15 25.8778 1860.15 24.4545C1860.15 23.027 1860.42 21.8125 1860.96 20.8111C1861.5 19.8097 1862.23 19.0469 1863.15 18.5227C1864.08 17.9943 1865.12 17.7301 1866.28 17.7301C1867.44 17.7301 1868.48 17.9943 1869.4 18.5227C1870.33 19.0469 1871.06 19.8097 1871.6 20.8111C1872.14 21.8125 1872.41 23.027 1872.41 24.4545ZM1869.61 24.4545C1869.61 23.5298 1869.47 22.75 1869.19 22.1151C1868.92 21.4801 1868.53 20.9986 1868.03 20.6705C1867.54 20.3423 1866.95 20.1783 1866.28 20.1783C1865.61 20.1783 1865.03 20.3423 1864.53 20.6705C1864.03 20.9986 1863.64 21.4801 1863.37 22.1151C1863.1 22.75 1862.96 23.5298 1862.96 24.4545C1862.96 25.3793 1863.1 26.1591 1863.37 26.794C1863.64 27.429 1864.03 27.9105 1864.53 28.2386C1865.03 28.5668 1865.61 28.7308 1866.28 28.7308C1866.95 28.7308 1867.54 28.5668 1868.03 28.2386C1868.53 27.9105 1868.92 27.429 1869.19 26.794C1869.47 26.1591 1869.61 25.3793 1869.61 24.4545ZM1874.46 31V17.9091H1879.63C1880.62 17.9091 1881.47 18.0987 1882.17 18.478C1882.86 18.853 1883.4 19.375 1883.76 20.044C1884.13 20.7088 1884.32 21.4759 1884.32 22.3452C1884.32 23.2145 1884.13 23.9815 1883.76 24.6463C1883.38 25.3111 1882.84 25.8288 1882.13 26.1996C1881.42 26.5703 1880.56 26.7557 1879.56 26.7557H1876.27V24.5376H1879.11C1879.64 24.5376 1880.08 24.446 1880.43 24.2628C1880.78 24.0753 1881.04 23.8175 1881.21 23.4893C1881.38 23.157 1881.47 22.7756 1881.47 22.3452C1881.47 21.9105 1881.38 21.5312 1881.21 21.2074C1881.04 20.8793 1880.78 20.6257 1880.43 20.4467C1880.08 20.2635 1879.63 20.1719 1879.1 20.1719H1877.23V31H1874.46Z" fill="black"/>
</svg>
